<mxfile host="app.diagrams.net" modified="2023-08-08T09:59:40.440Z" agent="Mozilla/5.0 (Windows NT 10.0; Win64; x64) AppleWebKit/537.36 (KHTML, like Gecko) Chrome/115.0.0.0 Safari/537.36 Edg/115.0.1901.188" etag="Z2G2iRSTaKKicpLWhXbN" version="21.6.6" type="github">
  <diagram name="第 1 页" id="kZftcCl7DrvhkMPYo8V3">
    <mxGraphModel dx="7023" dy="2090" grid="1" gridSize="10" guides="1" tooltips="1" connect="1" arrows="1" fold="1" page="1" pageScale="1" pageWidth="827" pageHeight="1169" math="0" shadow="0">
      <root>
        <mxCell id="0" />
        <mxCell id="1" parent="0" />
        <mxCell id="M4qY9_0p-FFGt08aSmp1-392" style="edgeStyle=orthogonalEdgeStyle;rounded=0;orthogonalLoop=1;jettySize=auto;html=1;entryX=0;entryY=0.5;entryDx=0;entryDy=0;entryPerimeter=0;fontSize=22;" edge="1" parent="1" source="M4qY9_0p-FFGt08aSmp1-394" target="M4qY9_0p-FFGt08aSmp1-653">
          <mxGeometry relative="1" as="geometry" />
        </mxCell>
        <mxCell id="M4qY9_0p-FFGt08aSmp1-393" style="edgeStyle=orthogonalEdgeStyle;rounded=0;orthogonalLoop=1;jettySize=auto;html=1;fontSize=22;" edge="1" parent="1" source="M4qY9_0p-FFGt08aSmp1-394" target="M4qY9_0p-FFGt08aSmp1-712">
          <mxGeometry relative="1" as="geometry" />
        </mxCell>
        <mxCell id="M4qY9_0p-FFGt08aSmp1-394" value="开始" style="strokeWidth=2;html=1;shape=mxgraph.flowchart.terminator;whiteSpace=wrap;fontSize=22;" vertex="1" parent="1">
          <mxGeometry x="-1320.06" y="160" width="100" height="60" as="geometry" />
        </mxCell>
        <mxCell id="M4qY9_0p-FFGt08aSmp1-395" value="" style="edgeStyle=orthogonalEdgeStyle;rounded=0;orthogonalLoop=1;jettySize=auto;html=1;fontSize=22;" edge="1" parent="1" source="M4qY9_0p-FFGt08aSmp1-396" target="M4qY9_0p-FFGt08aSmp1-398">
          <mxGeometry relative="1" as="geometry" />
        </mxCell>
        <mxCell id="M4qY9_0p-FFGt08aSmp1-396" value="接受传感器数据" style="rounded=1;whiteSpace=wrap;html=1;absoluteArcSize=1;arcSize=14;strokeWidth=2;fontSize=22;" vertex="1" parent="1">
          <mxGeometry x="-1350.06" y="505.6000000000001" width="160" height="70" as="geometry" />
        </mxCell>
        <mxCell id="M4qY9_0p-FFGt08aSmp1-397" value="" style="edgeStyle=orthogonalEdgeStyle;rounded=0;orthogonalLoop=1;jettySize=auto;html=1;fontSize=22;" edge="1" parent="1" source="M4qY9_0p-FFGt08aSmp1-398" target="M4qY9_0p-FFGt08aSmp1-416">
          <mxGeometry relative="1" as="geometry" />
        </mxCell>
        <mxCell id="M4qY9_0p-FFGt08aSmp1-398" value="加速度数据" style="shape=parallelogram;html=1;strokeWidth=2;perimeter=parallelogramPerimeter;whiteSpace=wrap;rounded=1;arcSize=12;size=0.23;fontSize=22;" vertex="1" parent="1">
          <mxGeometry x="-1360.06" y="635.6" width="180" height="70" as="geometry" />
        </mxCell>
        <mxCell id="M4qY9_0p-FFGt08aSmp1-399" value="" style="edgeStyle=orthogonalEdgeStyle;rounded=0;orthogonalLoop=1;jettySize=auto;html=1;fontSize=22;" edge="1" parent="1" source="M4qY9_0p-FFGt08aSmp1-400" target="M4qY9_0p-FFGt08aSmp1-405">
          <mxGeometry relative="1" as="geometry" />
        </mxCell>
        <mxCell id="M4qY9_0p-FFGt08aSmp1-400" value="存入内存data1" style="rounded=1;whiteSpace=wrap;html=1;absoluteArcSize=1;arcSize=14;strokeWidth=2;fontSize=22;" vertex="1" parent="1">
          <mxGeometry x="-1350.06" y="965.6" width="160" height="70" as="geometry" />
        </mxCell>
        <mxCell id="M4qY9_0p-FFGt08aSmp1-401" style="edgeStyle=orthogonalEdgeStyle;rounded=0;orthogonalLoop=1;jettySize=auto;html=1;fontSize=22;" edge="1" parent="1" source="M4qY9_0p-FFGt08aSmp1-405" target="M4qY9_0p-FFGt08aSmp1-407">
          <mxGeometry relative="1" as="geometry" />
        </mxCell>
        <mxCell id="M4qY9_0p-FFGt08aSmp1-402" value="否" style="edgeLabel;html=1;align=center;verticalAlign=middle;resizable=0;points=[];fontSize=22;" vertex="1" connectable="0" parent="M4qY9_0p-FFGt08aSmp1-401">
          <mxGeometry x="-0.2667" y="-3" relative="1" as="geometry">
            <mxPoint x="3" y="11.41" as="offset" />
          </mxGeometry>
        </mxCell>
        <mxCell id="M4qY9_0p-FFGt08aSmp1-403" style="edgeStyle=orthogonalEdgeStyle;rounded=0;orthogonalLoop=1;jettySize=auto;html=1;fontSize=22;" edge="1" parent="1" source="M4qY9_0p-FFGt08aSmp1-405">
          <mxGeometry relative="1" as="geometry">
            <Array as="points">
              <mxPoint x="-1539.8600000000001" y="1159.6000000000001" />
              <mxPoint x="-1539.8600000000001" y="465.6000000000001" />
              <mxPoint x="-1309.8600000000001" y="465.6000000000001" />
              <mxPoint x="-1309.8600000000001" y="504.6000000000001" />
            </Array>
            <mxPoint x="-1309.8600000000001" y="504.6000000000001" as="targetPoint" />
          </mxGeometry>
        </mxCell>
        <mxCell id="M4qY9_0p-FFGt08aSmp1-404" value="是" style="edgeLabel;html=1;align=center;verticalAlign=middle;resizable=0;points=[];fontSize=22;" vertex="1" connectable="0" parent="M4qY9_0p-FFGt08aSmp1-403">
          <mxGeometry x="-0.9382" y="2" relative="1" as="geometry">
            <mxPoint x="-25.71" y="-2" as="offset" />
          </mxGeometry>
        </mxCell>
        <mxCell id="M4qY9_0p-FFGt08aSmp1-405" value="data1未超出预设上限？" style="strokeWidth=2;html=1;shape=mxgraph.flowchart.decision;whiteSpace=wrap;fontSize=22;" vertex="1" parent="1">
          <mxGeometry x="-1420.06" y="1095.6" width="300" height="138" as="geometry" />
        </mxCell>
        <mxCell id="M4qY9_0p-FFGt08aSmp1-406" style="edgeStyle=orthogonalEdgeStyle;rounded=0;orthogonalLoop=1;jettySize=auto;html=1;fontSize=22;" edge="1" parent="1" source="M4qY9_0p-FFGt08aSmp1-407" target="M4qY9_0p-FFGt08aSmp1-411">
          <mxGeometry relative="1" as="geometry" />
        </mxCell>
        <mxCell id="M4qY9_0p-FFGt08aSmp1-407" value="释放内存data1" style="rounded=1;whiteSpace=wrap;html=1;absoluteArcSize=1;arcSize=14;strokeWidth=2;fontSize=22;" vertex="1" parent="1">
          <mxGeometry x="-1350.06" y="1325.6" width="160" height="70" as="geometry" />
        </mxCell>
        <mxCell id="M4qY9_0p-FFGt08aSmp1-408" style="edgeStyle=orthogonalEdgeStyle;rounded=0;orthogonalLoop=1;jettySize=auto;html=1;entryX=0;entryY=0.5;entryDx=0;entryDy=0;entryPerimeter=0;fontSize=22;" edge="1" parent="1" source="M4qY9_0p-FFGt08aSmp1-410" target="M4qY9_0p-FFGt08aSmp1-431">
          <mxGeometry relative="1" as="geometry" />
        </mxCell>
        <mxCell id="M4qY9_0p-FFGt08aSmp1-409" style="edgeStyle=orthogonalEdgeStyle;rounded=0;orthogonalLoop=1;jettySize=auto;html=1;fontSize=22;" edge="1" parent="1" source="M4qY9_0p-FFGt08aSmp1-410" target="M4qY9_0p-FFGt08aSmp1-433">
          <mxGeometry relative="1" as="geometry" />
        </mxCell>
        <mxCell id="M4qY9_0p-FFGt08aSmp1-410" value="开始" style="strokeWidth=2;html=1;shape=mxgraph.flowchart.terminator;whiteSpace=wrap;fontSize=22;" vertex="1" parent="1">
          <mxGeometry x="2360.1499999999996" y="163.75" width="100" height="60" as="geometry" />
        </mxCell>
        <mxCell id="M4qY9_0p-FFGt08aSmp1-411" value="结束" style="strokeWidth=2;html=1;shape=mxgraph.flowchart.terminator;whiteSpace=wrap;fontSize=22;" vertex="1" parent="1">
          <mxGeometry x="-1320.06" y="1710" width="100" height="60" as="geometry" />
        </mxCell>
        <mxCell id="M4qY9_0p-FFGt08aSmp1-412" value="" style="edgeStyle=orthogonalEdgeStyle;rounded=0;orthogonalLoop=1;jettySize=auto;html=1;fontSize=22;" edge="1" parent="1" source="M4qY9_0p-FFGt08aSmp1-416" target="M4qY9_0p-FFGt08aSmp1-400">
          <mxGeometry relative="1" as="geometry" />
        </mxCell>
        <mxCell id="M4qY9_0p-FFGt08aSmp1-413" value="否" style="edgeLabel;html=1;align=center;verticalAlign=middle;resizable=0;points=[];fontSize=22;" vertex="1" connectable="0" parent="M4qY9_0p-FFGt08aSmp1-412">
          <mxGeometry x="0.2154" y="3" relative="1" as="geometry">
            <mxPoint x="-3" y="-18.57" as="offset" />
          </mxGeometry>
        </mxCell>
        <mxCell id="M4qY9_0p-FFGt08aSmp1-414" value="" style="edgeStyle=orthogonalEdgeStyle;rounded=0;orthogonalLoop=1;jettySize=auto;html=1;fontSize=22;" edge="1" parent="1" source="M4qY9_0p-FFGt08aSmp1-416" target="M4qY9_0p-FFGt08aSmp1-421">
          <mxGeometry relative="1" as="geometry" />
        </mxCell>
        <mxCell id="M4qY9_0p-FFGt08aSmp1-415" value="是" style="edgeLabel;html=1;align=center;verticalAlign=middle;resizable=0;points=[];fontSize=22;" vertex="1" connectable="0" parent="M4qY9_0p-FFGt08aSmp1-414">
          <mxGeometry x="-0.221" relative="1" as="geometry">
            <mxPoint x="-12.350000000000001" as="offset" />
          </mxGeometry>
        </mxCell>
        <mxCell id="M4qY9_0p-FFGt08aSmp1-416" value="data1被锁死？" style="strokeWidth=2;html=1;shape=mxgraph.flowchart.decision;whiteSpace=wrap;fontSize=22;" vertex="1" parent="1">
          <mxGeometry x="-1370.06" y="755.6" width="200" height="110" as="geometry" />
        </mxCell>
        <mxCell id="M4qY9_0p-FFGt08aSmp1-417" style="edgeStyle=orthogonalEdgeStyle;rounded=0;orthogonalLoop=1;jettySize=auto;html=1;entryX=0.5;entryY=0;entryDx=0;entryDy=0;fontSize=22;" edge="1" parent="1" source="M4qY9_0p-FFGt08aSmp1-421" target="M4qY9_0p-FFGt08aSmp1-423">
          <mxGeometry relative="1" as="geometry" />
        </mxCell>
        <mxCell id="M4qY9_0p-FFGt08aSmp1-418" value="否" style="edgeLabel;html=1;align=center;verticalAlign=middle;resizable=0;points=[];fontSize=22;" vertex="1" connectable="0" parent="M4qY9_0p-FFGt08aSmp1-417">
          <mxGeometry x="0.204" y="1" relative="1" as="geometry">
            <mxPoint x="-1" y="-19.14" as="offset" />
          </mxGeometry>
        </mxCell>
        <mxCell id="M4qY9_0p-FFGt08aSmp1-419" style="edgeStyle=orthogonalEdgeStyle;rounded=0;orthogonalLoop=1;jettySize=auto;html=1;entryX=1;entryY=0.5;entryDx=0;entryDy=0;fontSize=22;" edge="1" parent="1" source="M4qY9_0p-FFGt08aSmp1-421" target="M4qY9_0p-FFGt08aSmp1-396">
          <mxGeometry relative="1" as="geometry">
            <Array as="points">
              <mxPoint x="-770.06" y="940.6" />
              <mxPoint x="-770.06" y="540.6000000000001" />
            </Array>
          </mxGeometry>
        </mxCell>
        <mxCell id="M4qY9_0p-FFGt08aSmp1-420" value="是" style="edgeLabel;html=1;align=center;verticalAlign=middle;resizable=0;points=[];fontSize=22;" vertex="1" connectable="0" parent="M4qY9_0p-FFGt08aSmp1-419">
          <mxGeometry x="-0.9124" y="-3" relative="1" as="geometry">
            <mxPoint as="offset" />
          </mxGeometry>
        </mxCell>
        <mxCell id="M4qY9_0p-FFGt08aSmp1-421" value="data2被锁死？" style="strokeWidth=2;html=1;shape=mxgraph.flowchart.decision;whiteSpace=wrap;fontSize=22;" vertex="1" parent="1">
          <mxGeometry x="-1060.06" y="885.6" width="200" height="110" as="geometry" />
        </mxCell>
        <mxCell id="M4qY9_0p-FFGt08aSmp1-422" value="" style="edgeStyle=orthogonalEdgeStyle;rounded=0;orthogonalLoop=1;jettySize=auto;html=1;fontSize=22;" edge="1" parent="1" source="M4qY9_0p-FFGt08aSmp1-423" target="M4qY9_0p-FFGt08aSmp1-428">
          <mxGeometry relative="1" as="geometry" />
        </mxCell>
        <mxCell id="M4qY9_0p-FFGt08aSmp1-423" value="存入内存data2" style="rounded=1;whiteSpace=wrap;html=1;absoluteArcSize=1;arcSize=14;strokeWidth=2;fontSize=22;" vertex="1" parent="1">
          <mxGeometry x="-1040.06" y="1077.1100000000001" width="160" height="70" as="geometry" />
        </mxCell>
        <mxCell id="M4qY9_0p-FFGt08aSmp1-424" style="edgeStyle=orthogonalEdgeStyle;rounded=0;orthogonalLoop=1;jettySize=auto;html=1;fontSize=22;" edge="1" parent="1" source="M4qY9_0p-FFGt08aSmp1-428" target="M4qY9_0p-FFGt08aSmp1-430">
          <mxGeometry relative="1" as="geometry" />
        </mxCell>
        <mxCell id="M4qY9_0p-FFGt08aSmp1-425" value="否" style="edgeLabel;html=1;align=center;verticalAlign=middle;resizable=0;points=[];fontSize=22;" vertex="1" connectable="0" parent="M4qY9_0p-FFGt08aSmp1-424">
          <mxGeometry x="-0.2667" y="-3" relative="1" as="geometry">
            <mxPoint x="3" y="11.41" as="offset" />
          </mxGeometry>
        </mxCell>
        <mxCell id="M4qY9_0p-FFGt08aSmp1-426" style="edgeStyle=orthogonalEdgeStyle;rounded=0;orthogonalLoop=1;jettySize=auto;html=1;entryX=0.75;entryY=0;entryDx=0;entryDy=0;fontSize=22;" edge="1" parent="1" source="M4qY9_0p-FFGt08aSmp1-428" target="M4qY9_0p-FFGt08aSmp1-396">
          <mxGeometry relative="1" as="geometry">
            <Array as="points">
              <mxPoint x="-660.0600000000001" y="1261.6" />
              <mxPoint x="-660.0600000000001" y="465.6000000000001" />
              <mxPoint x="-1230.06" y="465.6000000000001" />
            </Array>
          </mxGeometry>
        </mxCell>
        <mxCell id="M4qY9_0p-FFGt08aSmp1-427" value="是" style="edgeLabel;html=1;align=center;verticalAlign=middle;resizable=0;points=[];fontSize=22;" vertex="1" connectable="0" parent="M4qY9_0p-FFGt08aSmp1-426">
          <mxGeometry x="-0.9565" y="3" relative="1" as="geometry">
            <mxPoint x="15.83" y="3.01" as="offset" />
          </mxGeometry>
        </mxCell>
        <mxCell id="M4qY9_0p-FFGt08aSmp1-428" value="data2未超出预设上限？" style="strokeWidth=2;html=1;shape=mxgraph.flowchart.decision;whiteSpace=wrap;fontSize=22;" vertex="1" parent="1">
          <mxGeometry x="-1110.06" y="1187.11" width="300" height="148" as="geometry" />
        </mxCell>
        <mxCell id="M4qY9_0p-FFGt08aSmp1-429" style="edgeStyle=orthogonalEdgeStyle;rounded=0;orthogonalLoop=1;jettySize=auto;html=1;fontSize=22;" edge="1" parent="1" source="M4qY9_0p-FFGt08aSmp1-430" target="M4qY9_0p-FFGt08aSmp1-411">
          <mxGeometry relative="1" as="geometry">
            <Array as="points">
              <mxPoint x="-959.86" y="1590" />
              <mxPoint x="-1269.8600000000001" y="1590" />
            </Array>
          </mxGeometry>
        </mxCell>
        <mxCell id="M4qY9_0p-FFGt08aSmp1-430" value="释放内存data2" style="rounded=1;whiteSpace=wrap;html=1;absoluteArcSize=1;arcSize=14;strokeWidth=2;fontSize=22;" vertex="1" parent="1">
          <mxGeometry x="-1040.06" y="1415.6" width="160" height="70" as="geometry" />
        </mxCell>
        <mxCell id="M4qY9_0p-FFGt08aSmp1-431" value="&amp;nbsp;写入U盘数据流程" style="strokeWidth=2;html=1;shape=mxgraph.flowchart.annotation_1;align=left;pointerEvents=1;fontSize=22;" vertex="1" parent="1">
          <mxGeometry x="2620.1499999999996" y="163.75" width="180" height="60" as="geometry" />
        </mxCell>
        <mxCell id="M4qY9_0p-FFGt08aSmp1-432" value="" style="edgeStyle=orthogonalEdgeStyle;rounded=0;orthogonalLoop=1;jettySize=auto;html=1;fontSize=22;" edge="1" parent="1" source="M4qY9_0p-FFGt08aSmp1-433" target="M4qY9_0p-FFGt08aSmp1-444">
          <mxGeometry relative="1" as="geometry" />
        </mxCell>
        <mxCell id="M4qY9_0p-FFGt08aSmp1-433" value="初始化CH375芯片" style="rounded=1;whiteSpace=wrap;html=1;absoluteArcSize=1;arcSize=14;strokeWidth=2;fontSize=22;" vertex="1" parent="1">
          <mxGeometry x="2342.6499999999996" y="293.75" width="135" height="70" as="geometry" />
        </mxCell>
        <mxCell id="M4qY9_0p-FFGt08aSmp1-434" value="" style="edgeStyle=orthogonalEdgeStyle;rounded=0;orthogonalLoop=1;jettySize=auto;html=1;fontSize=22;" edge="1" parent="1" source="M4qY9_0p-FFGt08aSmp1-435" target="M4qY9_0p-FFGt08aSmp1-449">
          <mxGeometry relative="1" as="geometry" />
        </mxCell>
        <mxCell id="M4qY9_0p-FFGt08aSmp1-435" value="初始化磁盘与CH375的连接" style="rounded=1;whiteSpace=wrap;html=1;absoluteArcSize=1;arcSize=14;strokeWidth=2;fontSize=22;" vertex="1" parent="1">
          <mxGeometry x="2312.96" y="633.75" width="194.37" height="80" as="geometry" />
        </mxCell>
        <mxCell id="M4qY9_0p-FFGt08aSmp1-436" value="" style="edgeStyle=orthogonalEdgeStyle;rounded=0;orthogonalLoop=1;jettySize=auto;html=1;fontSize=22;" edge="1" parent="1" source="M4qY9_0p-FFGt08aSmp1-437" target="M4qY9_0p-FFGt08aSmp1-453">
          <mxGeometry relative="1" as="geometry" />
        </mxCell>
        <mxCell id="M4qY9_0p-FFGt08aSmp1-437" value="初始化文件系统" style="rounded=1;whiteSpace=wrap;html=1;absoluteArcSize=1;arcSize=14;strokeWidth=2;fontSize=22;" vertex="1" parent="1">
          <mxGeometry x="2311.5599999999995" y="1023.75" width="197.18" height="70" as="geometry" />
        </mxCell>
        <mxCell id="M4qY9_0p-FFGt08aSmp1-438" value="" style="edgeStyle=orthogonalEdgeStyle;rounded=0;orthogonalLoop=1;jettySize=auto;html=1;fontSize=22;" edge="1" parent="1" source="M4qY9_0p-FFGt08aSmp1-439" target="M4qY9_0p-FFGt08aSmp1-463">
          <mxGeometry relative="1" as="geometry" />
        </mxCell>
        <mxCell id="M4qY9_0p-FFGt08aSmp1-439" value="创建并打开数据文件" style="rounded=1;whiteSpace=wrap;html=1;absoluteArcSize=1;arcSize=14;strokeWidth=2;fontSize=22;" vertex="1" parent="1">
          <mxGeometry x="2300.89" y="1573.75" width="218.58" height="70" as="geometry" />
        </mxCell>
        <mxCell id="M4qY9_0p-FFGt08aSmp1-440" value="" style="edgeStyle=orthogonalEdgeStyle;rounded=0;orthogonalLoop=1;jettySize=auto;html=1;fontSize=22;" edge="1" parent="1" source="M4qY9_0p-FFGt08aSmp1-444" target="M4qY9_0p-FFGt08aSmp1-435">
          <mxGeometry relative="1" as="geometry" />
        </mxCell>
        <mxCell id="M4qY9_0p-FFGt08aSmp1-441" value="是" style="edgeLabel;html=1;align=center;verticalAlign=middle;resizable=0;points=[];fontSize=22;" vertex="1" connectable="0" parent="M4qY9_0p-FFGt08aSmp1-440">
          <mxGeometry x="-0.3823" y="1" relative="1" as="geometry">
            <mxPoint as="offset" />
          </mxGeometry>
        </mxCell>
        <mxCell id="M4qY9_0p-FFGt08aSmp1-442" value="" style="edgeStyle=orthogonalEdgeStyle;rounded=0;orthogonalLoop=1;jettySize=auto;html=1;fontSize=22;" edge="1" parent="1" source="M4qY9_0p-FFGt08aSmp1-444" target="M4qY9_0p-FFGt08aSmp1-480">
          <mxGeometry relative="1" as="geometry" />
        </mxCell>
        <mxCell id="M4qY9_0p-FFGt08aSmp1-443" value="否" style="edgeLabel;html=1;align=center;verticalAlign=middle;resizable=0;points=[];fontSize=22;" vertex="1" connectable="0" parent="M4qY9_0p-FFGt08aSmp1-442">
          <mxGeometry x="-0.2722" y="-1" relative="1" as="geometry">
            <mxPoint x="12.5" y="-1" as="offset" />
          </mxGeometry>
        </mxCell>
        <mxCell id="M4qY9_0p-FFGt08aSmp1-444" value="&lt;span&gt;初始化CH375芯片成功？&lt;/span&gt;" style="strokeWidth=2;html=1;shape=mxgraph.flowchart.decision;whiteSpace=wrap;fontSize=22;" vertex="1" parent="1">
          <mxGeometry x="2252.6499999999996" y="423.75" width="315" height="140" as="geometry" />
        </mxCell>
        <mxCell id="M4qY9_0p-FFGt08aSmp1-445" value="" style="edgeStyle=orthogonalEdgeStyle;rounded=0;orthogonalLoop=1;jettySize=auto;html=1;fontSize=22;" edge="1" parent="1" source="M4qY9_0p-FFGt08aSmp1-449" target="M4qY9_0p-FFGt08aSmp1-437">
          <mxGeometry relative="1" as="geometry" />
        </mxCell>
        <mxCell id="M4qY9_0p-FFGt08aSmp1-446" value="是" style="edgeLabel;html=1;align=center;verticalAlign=middle;resizable=0;points=[];fontSize=22;" vertex="1" connectable="0" parent="M4qY9_0p-FFGt08aSmp1-445">
          <mxGeometry x="-0.3746" relative="1" as="geometry">
            <mxPoint x="-0.01" y="11" as="offset" />
          </mxGeometry>
        </mxCell>
        <mxCell id="M4qY9_0p-FFGt08aSmp1-447" style="edgeStyle=orthogonalEdgeStyle;rounded=0;orthogonalLoop=1;jettySize=auto;html=1;fontSize=22;" edge="1" parent="1" source="M4qY9_0p-FFGt08aSmp1-449" target="M4qY9_0p-FFGt08aSmp1-715">
          <mxGeometry relative="1" as="geometry">
            <mxPoint x="2718.7699999999995" y="849.25" as="targetPoint" />
          </mxGeometry>
        </mxCell>
        <mxCell id="M4qY9_0p-FFGt08aSmp1-448" value="否" style="edgeLabel;html=1;align=center;verticalAlign=middle;resizable=0;points=[];fontSize=22;" vertex="1" connectable="0" parent="M4qY9_0p-FFGt08aSmp1-447">
          <mxGeometry x="0.2445" y="1" relative="1" as="geometry">
            <mxPoint x="-19.14" y="1" as="offset" />
          </mxGeometry>
        </mxCell>
        <mxCell id="M4qY9_0p-FFGt08aSmp1-449" value="初始化磁盘与CH375的连接成功？" style="strokeWidth=2;html=1;shape=mxgraph.flowchart.decision;whiteSpace=wrap;fontSize=22;" vertex="1" parent="1">
          <mxGeometry x="2205.7799999999997" y="763.75" width="408.75" height="171" as="geometry" />
        </mxCell>
        <mxCell id="M4qY9_0p-FFGt08aSmp1-450" style="edgeStyle=orthogonalEdgeStyle;rounded=0;orthogonalLoop=1;jettySize=auto;html=1;fontSize=22;" edge="1" parent="1" source="M4qY9_0p-FFGt08aSmp1-453" target="M4qY9_0p-FFGt08aSmp1-718">
          <mxGeometry relative="1" as="geometry">
            <mxPoint x="2718.7699999999995" y="1198.75" as="targetPoint" />
          </mxGeometry>
        </mxCell>
        <mxCell id="M4qY9_0p-FFGt08aSmp1-451" value="否" style="edgeLabel;html=1;align=center;verticalAlign=middle;resizable=0;points=[];fontSize=22;" vertex="1" connectable="0" parent="M4qY9_0p-FFGt08aSmp1-450">
          <mxGeometry x="0.2653" relative="1" as="geometry">
            <mxPoint x="-14" as="offset" />
          </mxGeometry>
        </mxCell>
        <mxCell id="M4qY9_0p-FFGt08aSmp1-452" value="" style="edgeStyle=orthogonalEdgeStyle;rounded=0;orthogonalLoop=1;jettySize=auto;html=1;fontSize=22;" edge="1" parent="1" source="M4qY9_0p-FFGt08aSmp1-453" target="M4qY9_0p-FFGt08aSmp1-458">
          <mxGeometry relative="1" as="geometry" />
        </mxCell>
        <mxCell id="M4qY9_0p-FFGt08aSmp1-453" value="初始化文件系统成功？" style="strokeWidth=2;html=1;shape=mxgraph.flowchart.decision;whiteSpace=wrap;fontSize=22;" vertex="1" parent="1">
          <mxGeometry x="2250.1499999999996" y="1133.75" width="320" height="130" as="geometry" />
        </mxCell>
        <mxCell id="M4qY9_0p-FFGt08aSmp1-454" style="edgeStyle=orthogonalEdgeStyle;rounded=0;orthogonalLoop=1;jettySize=auto;html=1;fontSize=22;" edge="1" parent="1" source="M4qY9_0p-FFGt08aSmp1-458" target="M4qY9_0p-FFGt08aSmp1-439">
          <mxGeometry relative="1" as="geometry" />
        </mxCell>
        <mxCell id="M4qY9_0p-FFGt08aSmp1-455" value="是" style="edgeLabel;html=1;align=center;verticalAlign=middle;resizable=0;points=[];fontSize=22;" vertex="1" connectable="0" parent="M4qY9_0p-FFGt08aSmp1-454">
          <mxGeometry x="-0.2924" y="2" relative="1" as="geometry">
            <mxPoint x="-1.97" y="19.41" as="offset" />
          </mxGeometry>
        </mxCell>
        <mxCell id="M4qY9_0p-FFGt08aSmp1-456" style="edgeStyle=orthogonalEdgeStyle;rounded=0;orthogonalLoop=1;jettySize=auto;html=1;fontSize=22;" edge="1" parent="1" source="M4qY9_0p-FFGt08aSmp1-458" target="M4qY9_0p-FFGt08aSmp1-510">
          <mxGeometry relative="1" as="geometry" />
        </mxCell>
        <mxCell id="M4qY9_0p-FFGt08aSmp1-457" value="否" style="edgeLabel;html=1;align=center;verticalAlign=middle;resizable=0;points=[];fontSize=22;" vertex="1" connectable="0" parent="M4qY9_0p-FFGt08aSmp1-456">
          <mxGeometry x="-0.4209" y="-2" relative="1" as="geometry">
            <mxPoint x="-24.71" y="-2" as="offset" />
          </mxGeometry>
        </mxCell>
        <mxCell id="M4qY9_0p-FFGt08aSmp1-458" value="数据文件已存在？" style="strokeWidth=2;html=1;shape=mxgraph.flowchart.decision;whiteSpace=wrap;fontSize=22;" vertex="1" parent="1">
          <mxGeometry x="2250.1499999999996" y="1343.75" width="320" height="130" as="geometry" />
        </mxCell>
        <mxCell id="M4qY9_0p-FFGt08aSmp1-459" value="" style="edgeStyle=orthogonalEdgeStyle;rounded=0;orthogonalLoop=1;jettySize=auto;html=1;fontSize=22;" edge="1" parent="1" source="M4qY9_0p-FFGt08aSmp1-463" target="M4qY9_0p-FFGt08aSmp1-468">
          <mxGeometry relative="1" as="geometry" />
        </mxCell>
        <mxCell id="M4qY9_0p-FFGt08aSmp1-460" value="是" style="edgeLabel;html=1;align=center;verticalAlign=middle;resizable=0;points=[];fontSize=22;" vertex="1" connectable="0" parent="M4qY9_0p-FFGt08aSmp1-459">
          <mxGeometry x="-0.2421" y="2" relative="1" as="geometry">
            <mxPoint x="-2" y="-1.68" as="offset" />
          </mxGeometry>
        </mxCell>
        <mxCell id="M4qY9_0p-FFGt08aSmp1-461" style="edgeStyle=orthogonalEdgeStyle;rounded=0;orthogonalLoop=1;jettySize=auto;html=1;entryX=0;entryY=0.5;entryDx=0;entryDy=0;fontSize=22;" edge="1" parent="1" source="M4qY9_0p-FFGt08aSmp1-463" target="M4qY9_0p-FFGt08aSmp1-483">
          <mxGeometry relative="1" as="geometry" />
        </mxCell>
        <mxCell id="M4qY9_0p-FFGt08aSmp1-462" value="否" style="edgeLabel;html=1;align=center;verticalAlign=middle;resizable=0;points=[];fontSize=22;" vertex="1" connectable="0" parent="M4qY9_0p-FFGt08aSmp1-461">
          <mxGeometry x="-0.2614" y="2" relative="1" as="geometry">
            <mxPoint x="12.86" y="2" as="offset" />
          </mxGeometry>
        </mxCell>
        <mxCell id="M4qY9_0p-FFGt08aSmp1-463" value="创建文件成功？" style="strokeWidth=2;html=1;shape=mxgraph.flowchart.decision;whiteSpace=wrap;fontSize=22;" vertex="1" parent="1">
          <mxGeometry x="2280.1499999999996" y="1803.75" width="260" height="120" as="geometry" />
        </mxCell>
        <mxCell id="M4qY9_0p-FFGt08aSmp1-464" value="" style="edgeStyle=orthogonalEdgeStyle;rounded=0;orthogonalLoop=1;jettySize=auto;html=1;fontSize=22;" edge="1" parent="1" source="M4qY9_0p-FFGt08aSmp1-468" target="M4qY9_0p-FFGt08aSmp1-473">
          <mxGeometry relative="1" as="geometry" />
        </mxCell>
        <mxCell id="M4qY9_0p-FFGt08aSmp1-465" value="是" style="edgeLabel;html=1;align=center;verticalAlign=middle;resizable=0;points=[];fontSize=22;" vertex="1" connectable="0" parent="M4qY9_0p-FFGt08aSmp1-464">
          <mxGeometry x="-0.61" y="-1" relative="1" as="geometry">
            <mxPoint x="1" y="24.4" as="offset" />
          </mxGeometry>
        </mxCell>
        <mxCell id="M4qY9_0p-FFGt08aSmp1-466" style="edgeStyle=orthogonalEdgeStyle;rounded=0;orthogonalLoop=1;jettySize=auto;html=1;fontSize=22;" edge="1" parent="1" source="M4qY9_0p-FFGt08aSmp1-468" target="M4qY9_0p-FFGt08aSmp1-508">
          <mxGeometry relative="1" as="geometry" />
        </mxCell>
        <mxCell id="M4qY9_0p-FFGt08aSmp1-467" value="否" style="edgeLabel;html=1;align=center;verticalAlign=middle;resizable=0;points=[];fontSize=22;" vertex="1" connectable="0" parent="M4qY9_0p-FFGt08aSmp1-466">
          <mxGeometry x="-0.7582" relative="1" as="geometry">
            <mxPoint x="34.38" y="-0.06" as="offset" />
          </mxGeometry>
        </mxCell>
        <mxCell id="M4qY9_0p-FFGt08aSmp1-468" value="start标志位为1？" style="strokeWidth=2;html=1;shape=mxgraph.flowchart.decision;whiteSpace=wrap;fontSize=22;" vertex="1" parent="1">
          <mxGeometry x="2280.1499999999996" y="2003.75" width="260" height="120" as="geometry" />
        </mxCell>
        <mxCell id="M4qY9_0p-FFGt08aSmp1-469" style="edgeStyle=orthogonalEdgeStyle;rounded=0;orthogonalLoop=1;jettySize=auto;html=1;fontSize=22;" edge="1" parent="1" source="M4qY9_0p-FFGt08aSmp1-473" target="M4qY9_0p-FFGt08aSmp1-486">
          <mxGeometry relative="1" as="geometry" />
        </mxCell>
        <mxCell id="M4qY9_0p-FFGt08aSmp1-470" value="否" style="edgeLabel;html=1;align=center;verticalAlign=middle;resizable=0;points=[];fontSize=22;" vertex="1" connectable="0" parent="M4qY9_0p-FFGt08aSmp1-469">
          <mxGeometry x="-0.3" y="-3" relative="1" as="geometry">
            <mxPoint x="3" y="15" as="offset" />
          </mxGeometry>
        </mxCell>
        <mxCell id="M4qY9_0p-FFGt08aSmp1-471" style="edgeStyle=orthogonalEdgeStyle;rounded=0;orthogonalLoop=1;jettySize=auto;html=1;entryX=0.5;entryY=0;entryDx=0;entryDy=0;entryPerimeter=0;fontSize=22;" edge="1" parent="1" source="M4qY9_0p-FFGt08aSmp1-473" target="M4qY9_0p-FFGt08aSmp1-478">
          <mxGeometry relative="1" as="geometry" />
        </mxCell>
        <mxCell id="M4qY9_0p-FFGt08aSmp1-472" value="是" style="edgeLabel;html=1;align=center;verticalAlign=middle;resizable=0;points=[];fontSize=22;" vertex="1" connectable="0" parent="M4qY9_0p-FFGt08aSmp1-471">
          <mxGeometry x="-0.6138" relative="1" as="geometry">
            <mxPoint as="offset" />
          </mxGeometry>
        </mxCell>
        <mxCell id="M4qY9_0p-FFGt08aSmp1-473" value="data1被锁死？" style="strokeWidth=2;html=1;shape=mxgraph.flowchart.decision;whiteSpace=wrap;fontSize=22;" vertex="1" parent="1">
          <mxGeometry x="2280.1499999999996" y="2203.75" width="260" height="120" as="geometry" />
        </mxCell>
        <mxCell id="M4qY9_0p-FFGt08aSmp1-474" style="edgeStyle=orthogonalEdgeStyle;rounded=0;orthogonalLoop=1;jettySize=auto;html=1;entryX=0.5;entryY=0;entryDx=0;entryDy=0;fontSize=22;" edge="1" parent="1" source="M4qY9_0p-FFGt08aSmp1-478" target="M4qY9_0p-FFGt08aSmp1-494">
          <mxGeometry relative="1" as="geometry" />
        </mxCell>
        <mxCell id="M4qY9_0p-FFGt08aSmp1-475" value="否" style="edgeLabel;html=1;align=center;verticalAlign=middle;resizable=0;points=[];fontSize=22;" vertex="1" connectable="0" parent="M4qY9_0p-FFGt08aSmp1-474">
          <mxGeometry x="-0.3008" y="-1" relative="1" as="geometry">
            <mxPoint x="0.97" y="9" as="offset" />
          </mxGeometry>
        </mxCell>
        <mxCell id="M4qY9_0p-FFGt08aSmp1-476" style="edgeStyle=orthogonalEdgeStyle;rounded=0;orthogonalLoop=1;jettySize=auto;html=1;entryX=0.5;entryY=0;entryDx=0;entryDy=0;fontSize=22;" edge="1" parent="1" source="M4qY9_0p-FFGt08aSmp1-478" target="M4qY9_0p-FFGt08aSmp1-503">
          <mxGeometry relative="1" as="geometry" />
        </mxCell>
        <mxCell id="M4qY9_0p-FFGt08aSmp1-477" value="是" style="edgeLabel;html=1;align=center;verticalAlign=middle;resizable=0;points=[];fontSize=22;" vertex="1" connectable="0" parent="M4qY9_0p-FFGt08aSmp1-476">
          <mxGeometry x="-0.5852" y="1" relative="1" as="geometry">
            <mxPoint y="-1" as="offset" />
          </mxGeometry>
        </mxCell>
        <mxCell id="M4qY9_0p-FFGt08aSmp1-478" value="data2被锁死？" style="strokeWidth=2;html=1;shape=mxgraph.flowchart.decision;whiteSpace=wrap;fontSize=22;" vertex="1" parent="1">
          <mxGeometry x="1976.1499999999996" y="2323.75" width="260" height="120" as="geometry" />
        </mxCell>
        <mxCell id="M4qY9_0p-FFGt08aSmp1-479" value="" style="edgeStyle=orthogonalEdgeStyle;rounded=0;orthogonalLoop=1;jettySize=auto;html=1;fontSize=22;" edge="1" parent="1" source="M4qY9_0p-FFGt08aSmp1-480" target="M4qY9_0p-FFGt08aSmp1-481">
          <mxGeometry relative="1" as="geometry" />
        </mxCell>
        <mxCell id="M4qY9_0p-FFGt08aSmp1-480" value="提示：“CH375芯片初始化失败”" style="rounded=1;whiteSpace=wrap;html=1;absoluteArcSize=1;arcSize=14;strokeWidth=2;fontSize=22;" vertex="1" parent="1">
          <mxGeometry x="2718.77" y="468.13" width="321.23" height="51.25" as="geometry" />
        </mxCell>
        <mxCell id="M4qY9_0p-FFGt08aSmp1-481" value="结束" style="strokeWidth=2;html=1;shape=mxgraph.flowchart.terminator;whiteSpace=wrap;fontSize=22;" vertex="1" parent="1">
          <mxGeometry x="3119.9999999999995" y="463.75" width="100" height="60" as="geometry" />
        </mxCell>
        <mxCell id="M4qY9_0p-FFGt08aSmp1-482" value="" style="edgeStyle=orthogonalEdgeStyle;rounded=0;orthogonalLoop=1;jettySize=auto;html=1;fontSize=22;" edge="1" parent="1" source="M4qY9_0p-FFGt08aSmp1-483" target="M4qY9_0p-FFGt08aSmp1-484">
          <mxGeometry relative="1" as="geometry" />
        </mxCell>
        <mxCell id="M4qY9_0p-FFGt08aSmp1-483" value="返回错误值" style="rounded=1;whiteSpace=wrap;html=1;absoluteArcSize=1;arcSize=14;strokeWidth=2;fontSize=22;" vertex="1" parent="1">
          <mxGeometry x="2683.1499999999996" y="1828.75" width="135" height="70" as="geometry" />
        </mxCell>
        <mxCell id="M4qY9_0p-FFGt08aSmp1-484" value="结束" style="strokeWidth=2;html=1;shape=mxgraph.flowchart.terminator;whiteSpace=wrap;fontSize=22;" vertex="1" parent="1">
          <mxGeometry x="2893.1499999999996" y="1833.75" width="100" height="60" as="geometry" />
        </mxCell>
        <mxCell id="M4qY9_0p-FFGt08aSmp1-485" value="" style="edgeStyle=orthogonalEdgeStyle;rounded=0;orthogonalLoop=1;jettySize=auto;html=1;fontSize=22;" edge="1" parent="1" source="M4qY9_0p-FFGt08aSmp1-486" target="M4qY9_0p-FFGt08aSmp1-488">
          <mxGeometry relative="1" as="geometry" />
        </mxCell>
        <mxCell id="M4qY9_0p-FFGt08aSmp1-486" value="等待data1到达上限" style="rounded=1;whiteSpace=wrap;html=1;absoluteArcSize=1;arcSize=14;strokeWidth=2;fontSize=22;" vertex="1" parent="1">
          <mxGeometry x="2298.31" y="2423.75" width="223.73" height="60" as="geometry" />
        </mxCell>
        <mxCell id="M4qY9_0p-FFGt08aSmp1-487" value="" style="edgeStyle=orthogonalEdgeStyle;rounded=0;orthogonalLoop=1;jettySize=auto;html=1;fontSize=22;" edge="1" parent="1" source="M4qY9_0p-FFGt08aSmp1-488" target="M4qY9_0p-FFGt08aSmp1-491">
          <mxGeometry relative="1" as="geometry" />
        </mxCell>
        <mxCell id="M4qY9_0p-FFGt08aSmp1-488" value="锁死data1，释放data2" style="rounded=1;whiteSpace=wrap;html=1;absoluteArcSize=1;arcSize=14;strokeWidth=2;fontSize=22;" vertex="1" parent="1">
          <mxGeometry x="2298.3099999999995" y="2523.75" width="223.73" height="60" as="geometry" />
        </mxCell>
        <mxCell id="M4qY9_0p-FFGt08aSmp1-489" style="edgeStyle=orthogonalEdgeStyle;rounded=0;orthogonalLoop=1;jettySize=auto;html=1;entryX=0.408;entryY=0.093;entryDx=0;entryDy=0;entryPerimeter=0;fontSize=22;exitX=0.5;exitY=1;exitDx=0;exitDy=0;" edge="1" parent="1" source="M4qY9_0p-FFGt08aSmp1-492" target="M4qY9_0p-FFGt08aSmp1-468">
          <mxGeometry relative="1" as="geometry">
            <Array as="points">
              <mxPoint x="2410.1499999999996" y="3053.75" />
              <mxPoint x="1640.1499999999999" y="3053.75" />
              <mxPoint x="1640.1499999999999" y="1973.75" />
              <mxPoint x="2386.1499999999996" y="1973.75" />
            </Array>
            <mxPoint x="2410.1499999999996" y="2873.75" as="sourcePoint" />
          </mxGeometry>
        </mxCell>
        <mxCell id="M4qY9_0p-FFGt08aSmp1-490" value="" style="edgeStyle=orthogonalEdgeStyle;rounded=0;orthogonalLoop=1;jettySize=auto;html=1;fontSize=22;" edge="1" parent="1" source="M4qY9_0p-FFGt08aSmp1-491" target="M4qY9_0p-FFGt08aSmp1-492">
          <mxGeometry relative="1" as="geometry" />
        </mxCell>
        <mxCell id="M4qY9_0p-FFGt08aSmp1-491" value="把data1写入数据文件" style="rounded=1;whiteSpace=wrap;html=1;absoluteArcSize=1;arcSize=14;strokeWidth=2;fontSize=22;" vertex="1" parent="1">
          <mxGeometry x="2298.27" y="2623.75" width="223.75" height="60" as="geometry" />
        </mxCell>
        <mxCell id="M4qY9_0p-FFGt08aSmp1-492" value="发送实时曲线指令" style="rounded=1;whiteSpace=wrap;html=1;absoluteArcSize=1;arcSize=14;strokeWidth=2;fontSize=22;" vertex="1" parent="1">
          <mxGeometry x="2298.27" y="2723.75" width="223.75" height="60" as="geometry" />
        </mxCell>
        <mxCell id="M4qY9_0p-FFGt08aSmp1-493" value="" style="edgeStyle=orthogonalEdgeStyle;rounded=0;orthogonalLoop=1;jettySize=auto;html=1;fontSize=22;" edge="1" parent="1" source="M4qY9_0p-FFGt08aSmp1-494" target="M4qY9_0p-FFGt08aSmp1-496">
          <mxGeometry relative="1" as="geometry" />
        </mxCell>
        <mxCell id="M4qY9_0p-FFGt08aSmp1-494" value="等待data2到达上限" style="rounded=1;whiteSpace=wrap;html=1;absoluteArcSize=1;arcSize=14;strokeWidth=2;fontSize=22;" vertex="1" parent="1">
          <mxGeometry x="1994.3099999999997" y="2523.75" width="223.73" height="60" as="geometry" />
        </mxCell>
        <mxCell id="M4qY9_0p-FFGt08aSmp1-495" value="" style="edgeStyle=orthogonalEdgeStyle;rounded=0;orthogonalLoop=1;jettySize=auto;html=1;fontSize=22;" edge="1" parent="1" source="M4qY9_0p-FFGt08aSmp1-496" target="M4qY9_0p-FFGt08aSmp1-499">
          <mxGeometry relative="1" as="geometry" />
        </mxCell>
        <mxCell id="M4qY9_0p-FFGt08aSmp1-496" value="锁死data2，释放data1" style="rounded=1;whiteSpace=wrap;html=1;absoluteArcSize=1;arcSize=14;strokeWidth=2;fontSize=22;" vertex="1" parent="1">
          <mxGeometry x="1994.3099999999997" y="2623.75" width="223.73" height="60" as="geometry" />
        </mxCell>
        <mxCell id="M4qY9_0p-FFGt08aSmp1-497" style="edgeStyle=orthogonalEdgeStyle;rounded=0;orthogonalLoop=1;jettySize=auto;html=1;entryX=0.304;entryY=0.176;entryDx=0;entryDy=0;entryPerimeter=0;fontSize=22;exitX=0.5;exitY=1;exitDx=0;exitDy=0;" edge="1" parent="1" source="M4qY9_0p-FFGt08aSmp1-500" target="M4qY9_0p-FFGt08aSmp1-468">
          <mxGeometry relative="1" as="geometry">
            <Array as="points">
              <mxPoint x="2106.1499999999996" y="2973.75" />
              <mxPoint x="1690.1499999999996" y="2973.75" />
              <mxPoint x="1690.1499999999996" y="2003.75" />
              <mxPoint x="2359.1499999999996" y="2003.75" />
            </Array>
            <mxPoint x="2106.1499999999996" y="2903.75" as="sourcePoint" />
          </mxGeometry>
        </mxCell>
        <mxCell id="M4qY9_0p-FFGt08aSmp1-498" value="" style="edgeStyle=orthogonalEdgeStyle;rounded=0;orthogonalLoop=1;jettySize=auto;html=1;fontSize=22;" edge="1" parent="1" source="M4qY9_0p-FFGt08aSmp1-499" target="M4qY9_0p-FFGt08aSmp1-500">
          <mxGeometry relative="1" as="geometry" />
        </mxCell>
        <mxCell id="M4qY9_0p-FFGt08aSmp1-499" value="把data2写入数据文件" style="rounded=1;whiteSpace=wrap;html=1;absoluteArcSize=1;arcSize=14;strokeWidth=2;fontSize=22;" vertex="1" parent="1">
          <mxGeometry x="1994.2699999999998" y="2723.75" width="223.75" height="60" as="geometry" />
        </mxCell>
        <mxCell id="M4qY9_0p-FFGt08aSmp1-500" value="发送实时曲线指令" style="rounded=1;whiteSpace=wrap;html=1;absoluteArcSize=1;arcSize=14;strokeWidth=2;fontSize=22;" vertex="1" parent="1">
          <mxGeometry x="1994.2699999999998" y="2823.75" width="223.75" height="60" as="geometry" />
        </mxCell>
        <mxCell id="M4qY9_0p-FFGt08aSmp1-501" value="结束" style="strokeWidth=2;html=1;shape=mxgraph.flowchart.terminator;whiteSpace=wrap;fontSize=22;" vertex="1" parent="1">
          <mxGeometry x="1792.02" y="2663.75" width="100" height="60" as="geometry" />
        </mxCell>
        <mxCell id="M4qY9_0p-FFGt08aSmp1-502" value="" style="edgeStyle=orthogonalEdgeStyle;rounded=0;orthogonalLoop=1;jettySize=auto;html=1;fontSize=22;" edge="1" parent="1" source="M4qY9_0p-FFGt08aSmp1-503" target="M4qY9_0p-FFGt08aSmp1-505">
          <mxGeometry relative="1" as="geometry" />
        </mxCell>
        <mxCell id="M4qY9_0p-FFGt08aSmp1-503" value="返回错误值" style="rounded=1;whiteSpace=wrap;html=1;absoluteArcSize=1;arcSize=14;strokeWidth=2;fontSize=22;" vertex="1" parent="1">
          <mxGeometry x="1730.1499999999996" y="2443.75" width="223.73" height="60" as="geometry" />
        </mxCell>
        <mxCell id="M4qY9_0p-FFGt08aSmp1-504" value="" style="edgeStyle=orthogonalEdgeStyle;rounded=0;orthogonalLoop=1;jettySize=auto;html=1;fontSize=22;" edge="1" parent="1" source="M4qY9_0p-FFGt08aSmp1-505" target="M4qY9_0p-FFGt08aSmp1-501">
          <mxGeometry relative="1" as="geometry" />
        </mxCell>
        <mxCell id="M4qY9_0p-FFGt08aSmp1-505" value="尝试关闭文件" style="rounded=1;whiteSpace=wrap;html=1;absoluteArcSize=1;arcSize=14;strokeWidth=2;fontSize=22;" vertex="1" parent="1">
          <mxGeometry x="1730.1499999999996" y="2553.75" width="223.73" height="60" as="geometry" />
        </mxCell>
        <mxCell id="M4qY9_0p-FFGt08aSmp1-506" value="结束" style="strokeWidth=2;html=1;shape=mxgraph.flowchart.terminator;whiteSpace=wrap;fontSize=22;" vertex="1" parent="1">
          <mxGeometry x="2652.02" y="2410.75" width="100" height="60" as="geometry" />
        </mxCell>
        <mxCell id="M4qY9_0p-FFGt08aSmp1-507" style="edgeStyle=orthogonalEdgeStyle;rounded=0;orthogonalLoop=1;jettySize=auto;html=1;fontSize=22;" edge="1" parent="1" source="M4qY9_0p-FFGt08aSmp1-508" target="M4qY9_0p-FFGt08aSmp1-506">
          <mxGeometry relative="1" as="geometry" />
        </mxCell>
        <mxCell id="M4qY9_0p-FFGt08aSmp1-508" value="尝试关闭文件" style="rounded=1;whiteSpace=wrap;html=1;absoluteArcSize=1;arcSize=14;strokeWidth=2;fontSize=22;" vertex="1" parent="1">
          <mxGeometry x="2590.1499999999996" y="2233.75" width="223.73" height="60" as="geometry" />
        </mxCell>
        <mxCell id="M4qY9_0p-FFGt08aSmp1-509" style="edgeStyle=orthogonalEdgeStyle;rounded=0;orthogonalLoop=1;jettySize=auto;html=1;entryX=0.588;entryY=0.055;entryDx=0;entryDy=0;entryPerimeter=0;fontSize=22;" edge="1" parent="1" source="M4qY9_0p-FFGt08aSmp1-510" target="M4qY9_0p-FFGt08aSmp1-463">
          <mxGeometry relative="1" as="geometry">
            <Array as="points">
              <mxPoint x="2699.1499999999996" y="1693.75" />
              <mxPoint x="2433.1499999999996" y="1693.75" />
            </Array>
          </mxGeometry>
        </mxCell>
        <mxCell id="M4qY9_0p-FFGt08aSmp1-510" value="打开数据文件" style="rounded=1;whiteSpace=wrap;html=1;absoluteArcSize=1;arcSize=14;strokeWidth=2;fontSize=22;" vertex="1" parent="1">
          <mxGeometry x="2590.1499999999996" y="1573.75" width="218.58" height="70" as="geometry" />
        </mxCell>
        <mxCell id="M4qY9_0p-FFGt08aSmp1-511" style="edgeStyle=orthogonalEdgeStyle;rounded=0;orthogonalLoop=1;jettySize=auto;html=1;entryX=0;entryY=0.5;entryDx=0;entryDy=0;entryPerimeter=0;fontSize=22;" edge="1" parent="1" source="M4qY9_0p-FFGt08aSmp1-513" target="M4qY9_0p-FFGt08aSmp1-514">
          <mxGeometry relative="1" as="geometry" />
        </mxCell>
        <mxCell id="M4qY9_0p-FFGt08aSmp1-512" style="edgeStyle=orthogonalEdgeStyle;rounded=0;orthogonalLoop=1;jettySize=auto;html=1;fontSize=22;" edge="1" parent="1" source="M4qY9_0p-FFGt08aSmp1-513" target="M4qY9_0p-FFGt08aSmp1-535">
          <mxGeometry relative="1" as="geometry" />
        </mxCell>
        <mxCell id="M4qY9_0p-FFGt08aSmp1-513" value="开始" style="strokeWidth=2;html=1;shape=mxgraph.flowchart.terminator;whiteSpace=wrap;fontSize=22;" vertex="1" parent="1">
          <mxGeometry x="-232.5" y="160" width="100" height="60" as="geometry" />
        </mxCell>
        <mxCell id="M4qY9_0p-FFGt08aSmp1-514" value="&amp;nbsp; UART3中断函数 接受上位机信号流程" style="strokeWidth=2;html=1;shape=mxgraph.flowchart.annotation_1;align=left;pointerEvents=1;fontSize=22;" vertex="1" parent="1">
          <mxGeometry x="-29.5" y="163.75" width="379.5" height="52.5" as="geometry" />
        </mxCell>
        <mxCell id="M4qY9_0p-FFGt08aSmp1-515" style="edgeStyle=orthogonalEdgeStyle;rounded=0;orthogonalLoop=1;jettySize=auto;html=1;entryX=0;entryY=0.5;entryDx=0;entryDy=0;entryPerimeter=0;fontSize=22;" edge="1" parent="1" source="M4qY9_0p-FFGt08aSmp1-517" target="M4qY9_0p-FFGt08aSmp1-518">
          <mxGeometry relative="1" as="geometry" />
        </mxCell>
        <mxCell id="M4qY9_0p-FFGt08aSmp1-516" style="edgeStyle=orthogonalEdgeStyle;rounded=0;orthogonalLoop=1;jettySize=auto;html=1;entryX=0.5;entryY=0;entryDx=0;entryDy=0;entryPerimeter=0;fontSize=22;" edge="1" parent="1" source="M4qY9_0p-FFGt08aSmp1-517" target="M4qY9_0p-FFGt08aSmp1-525">
          <mxGeometry relative="1" as="geometry" />
        </mxCell>
        <mxCell id="M4qY9_0p-FFGt08aSmp1-517" value="开始" style="strokeWidth=2;html=1;shape=mxgraph.flowchart.terminator;whiteSpace=wrap;fontSize=22;" vertex="1" parent="1">
          <mxGeometry x="577.5" y="163.75" width="100" height="60" as="geometry" />
        </mxCell>
        <mxCell id="M4qY9_0p-FFGt08aSmp1-518" value="&amp;nbsp;RTC秒中断函数流程" style="strokeWidth=2;html=1;shape=mxgraph.flowchart.annotation_1;align=left;pointerEvents=1;fontSize=22;" vertex="1" parent="1">
          <mxGeometry x="837.5" y="163.75" width="230" height="60" as="geometry" />
        </mxCell>
        <mxCell id="M4qY9_0p-FFGt08aSmp1-519" style="edgeStyle=orthogonalEdgeStyle;rounded=0;orthogonalLoop=1;jettySize=auto;html=1;entryX=0.5;entryY=0;entryDx=0;entryDy=0;entryPerimeter=0;fontSize=22;" edge="1" parent="1" source="M4qY9_0p-FFGt08aSmp1-520" target="M4qY9_0p-FFGt08aSmp1-531">
          <mxGeometry relative="1" as="geometry" />
        </mxCell>
        <mxCell id="M4qY9_0p-FFGt08aSmp1-520" value="读取RTC信息" style="rounded=1;whiteSpace=wrap;html=1;absoluteArcSize=1;arcSize=14;strokeWidth=2;fontSize=22;" vertex="1" parent="1">
          <mxGeometry x="528.75" y="568.75" width="197.5" height="70" as="geometry" />
        </mxCell>
        <mxCell id="M4qY9_0p-FFGt08aSmp1-521" value="" style="edgeStyle=orthogonalEdgeStyle;rounded=0;orthogonalLoop=1;jettySize=auto;html=1;fontSize=22;entryX=0.5;entryY=0;entryDx=0;entryDy=0;entryPerimeter=0;" edge="1" parent="1" source="M4qY9_0p-FFGt08aSmp1-525" target="M4qY9_0p-FFGt08aSmp1-533">
          <mxGeometry relative="1" as="geometry">
            <mxPoint x="937.5" y="343.75" as="targetPoint" />
            <Array as="points">
              <mxPoint x="937.5" y="343.75" />
              <mxPoint x="937.5" y="1063.75" />
              <mxPoint x="627.5" y="1063.75" />
            </Array>
          </mxGeometry>
        </mxCell>
        <mxCell id="M4qY9_0p-FFGt08aSmp1-522" value="是" style="edgeLabel;html=1;align=center;verticalAlign=middle;resizable=0;points=[];fontSize=22;" vertex="1" connectable="0" parent="M4qY9_0p-FFGt08aSmp1-521">
          <mxGeometry x="-0.2328" y="2" relative="1" as="geometry">
            <mxPoint x="-92" y="-314.5" as="offset" />
          </mxGeometry>
        </mxCell>
        <mxCell id="M4qY9_0p-FFGt08aSmp1-523" value="" style="edgeStyle=orthogonalEdgeStyle;rounded=0;orthogonalLoop=1;jettySize=auto;html=1;fontSize=22;" edge="1" parent="1" source="M4qY9_0p-FFGt08aSmp1-525" target="M4qY9_0p-FFGt08aSmp1-520">
          <mxGeometry relative="1" as="geometry">
            <mxPoint x="627.5" y="528.75" as="targetPoint" />
          </mxGeometry>
        </mxCell>
        <mxCell id="M4qY9_0p-FFGt08aSmp1-524" value="否" style="edgeLabel;html=1;align=center;verticalAlign=middle;resizable=0;points=[];fontSize=22;" vertex="1" connectable="0" parent="M4qY9_0p-FFGt08aSmp1-523">
          <mxGeometry x="-0.2501" y="-2" relative="1" as="geometry">
            <mxPoint x="2" y="16.47" as="offset" />
          </mxGeometry>
        </mxCell>
        <mxCell id="M4qY9_0p-FFGt08aSmp1-525" value="&lt;span&gt;start标志为1？&lt;/span&gt;" style="strokeWidth=2;html=1;shape=mxgraph.flowchart.decision;whiteSpace=wrap;fontSize=22;" vertex="1" parent="1">
          <mxGeometry x="470" y="273.75" width="315" height="140" as="geometry" />
        </mxCell>
        <mxCell id="M4qY9_0p-FFGt08aSmp1-526" style="edgeStyle=orthogonalEdgeStyle;rounded=0;orthogonalLoop=1;jettySize=auto;html=1;fontSize=22;" edge="1" parent="1" source="M4qY9_0p-FFGt08aSmp1-531" target="M4qY9_0p-FFGt08aSmp1-533">
          <mxGeometry relative="1" as="geometry">
            <mxPoint x="946.25" y="775.2600000000002" as="targetPoint" />
          </mxGeometry>
        </mxCell>
        <mxCell id="M4qY9_0p-FFGt08aSmp1-527" value="否" style="edgeLabel;html=1;align=center;verticalAlign=middle;resizable=0;points=[];fontSize=22;" vertex="1" connectable="0" parent="M4qY9_0p-FFGt08aSmp1-526">
          <mxGeometry x="0.229" relative="1" as="geometry">
            <mxPoint x="-26.32" as="offset" />
          </mxGeometry>
        </mxCell>
        <mxCell id="M4qY9_0p-FFGt08aSmp1-528" value="否" style="edgeLabel;html=1;align=center;verticalAlign=middle;resizable=0;points=[];fontSize=22;" vertex="1" connectable="0" parent="M4qY9_0p-FFGt08aSmp1-526">
          <mxGeometry x="-0.7662" y="3" relative="1" as="geometry">
            <mxPoint x="-3" y="8.49" as="offset" />
          </mxGeometry>
        </mxCell>
        <mxCell id="M4qY9_0p-FFGt08aSmp1-529" style="edgeStyle=orthogonalEdgeStyle;rounded=0;orthogonalLoop=1;jettySize=auto;html=1;fontSize=22;" edge="1" parent="1" source="M4qY9_0p-FFGt08aSmp1-531" target="M4qY9_0p-FFGt08aSmp1-533">
          <mxGeometry relative="1" as="geometry">
            <Array as="points">
              <mxPoint x="887.5" y="775.75" />
              <mxPoint x="887.5" y="1053.75" />
              <mxPoint x="627.5" y="1053.75" />
            </Array>
          </mxGeometry>
        </mxCell>
        <mxCell id="M4qY9_0p-FFGt08aSmp1-530" value="是" style="edgeLabel;html=1;align=center;verticalAlign=middle;resizable=0;points=[];fontSize=22;" vertex="1" connectable="0" parent="M4qY9_0p-FFGt08aSmp1-529">
          <mxGeometry x="-0.2613" relative="1" as="geometry">
            <mxPoint x="-60" y="-150.48999999999998" as="offset" />
          </mxGeometry>
        </mxCell>
        <mxCell id="M4qY9_0p-FFGt08aSmp1-531" value="&lt;span&gt;RTC秒中断产生？&lt;/span&gt;" style="strokeWidth=2;html=1;shape=mxgraph.flowchart.decision;whiteSpace=wrap;fontSize=22;" vertex="1" parent="1">
          <mxGeometry x="470" y="705.26" width="315" height="140" as="geometry" />
        </mxCell>
        <mxCell id="M4qY9_0p-FFGt08aSmp1-532" value="向上位机发送信息" style="rounded=1;whiteSpace=wrap;html=1;absoluteArcSize=1;arcSize=14;strokeWidth=2;fontSize=22;" vertex="1" parent="1">
          <mxGeometry x="528.75" y="948.75" width="197.5" height="70" as="geometry" />
        </mxCell>
        <mxCell id="M4qY9_0p-FFGt08aSmp1-533" value="结束" style="strokeWidth=2;html=1;shape=mxgraph.flowchart.terminator;whiteSpace=wrap;fontSize=22;" vertex="1" parent="1">
          <mxGeometry x="577.5" y="1098.75" width="100" height="60" as="geometry" />
        </mxCell>
        <mxCell id="M4qY9_0p-FFGt08aSmp1-534" value="" style="edgeStyle=orthogonalEdgeStyle;rounded=0;orthogonalLoop=1;jettySize=auto;html=1;fontSize=22;" edge="1" parent="1" source="M4qY9_0p-FFGt08aSmp1-535" target="M4qY9_0p-FFGt08aSmp1-537">
          <mxGeometry relative="1" as="geometry" />
        </mxCell>
        <mxCell id="M4qY9_0p-FFGt08aSmp1-535" value="接受到上位机发来的报文" style="rounded=1;whiteSpace=wrap;html=1;absoluteArcSize=1;arcSize=14;strokeWidth=2;fontSize=22;" vertex="1" parent="1">
          <mxGeometry x="-316.8699999999999" y="260" width="268.75" height="60" as="geometry" />
        </mxCell>
        <mxCell id="M4qY9_0p-FFGt08aSmp1-536" style="edgeStyle=orthogonalEdgeStyle;rounded=0;orthogonalLoop=1;jettySize=auto;html=1;entryX=0.5;entryY=0;entryDx=0;entryDy=0;entryPerimeter=0;fontSize=22;" edge="1" parent="1" source="M4qY9_0p-FFGt08aSmp1-537" target="M4qY9_0p-FFGt08aSmp1-544">
          <mxGeometry relative="1" as="geometry" />
        </mxCell>
        <mxCell id="M4qY9_0p-FFGt08aSmp1-537" value="解析报文" style="rounded=1;whiteSpace=wrap;html=1;absoluteArcSize=1;arcSize=14;strokeWidth=2;fontSize=22;" vertex="1" parent="1">
          <mxGeometry x="-316.8699999999999" y="370" width="268.75" height="60" as="geometry" />
        </mxCell>
        <mxCell id="M4qY9_0p-FFGt08aSmp1-538" style="edgeStyle=orthogonalEdgeStyle;rounded=0;orthogonalLoop=1;jettySize=auto;html=1;entryX=0.5;entryY=0;entryDx=0;entryDy=0;entryPerimeter=0;fontSize=22;" edge="1" parent="1" source="M4qY9_0p-FFGt08aSmp1-539" target="M4qY9_0p-FFGt08aSmp1-546">
          <mxGeometry relative="1" as="geometry" />
        </mxCell>
        <mxCell id="M4qY9_0p-FFGt08aSmp1-539" value="调用处理报文函数&lt;span style=&quot;font-size: 18.3333px&quot;&gt;&lt;sup&gt;[4]&lt;/sup&gt;&lt;/span&gt;" style="rounded=1;whiteSpace=wrap;html=1;absoluteArcSize=1;arcSize=14;strokeWidth=2;fontSize=22;" vertex="1" parent="1">
          <mxGeometry x="-316.8699999999999" y="710" width="268.75" height="60" as="geometry" />
        </mxCell>
        <mxCell id="M4qY9_0p-FFGt08aSmp1-540" style="edgeStyle=orthogonalEdgeStyle;rounded=0;orthogonalLoop=1;jettySize=auto;html=1;fontSize=22;" edge="1" parent="1" source="M4qY9_0p-FFGt08aSmp1-544" target="M4qY9_0p-FFGt08aSmp1-539">
          <mxGeometry relative="1" as="geometry" />
        </mxCell>
        <mxCell id="M4qY9_0p-FFGt08aSmp1-541" value="是" style="edgeLabel;html=1;align=center;verticalAlign=middle;resizable=0;points=[];fontSize=22;" vertex="1" connectable="0" parent="M4qY9_0p-FFGt08aSmp1-540">
          <mxGeometry x="0.225" y="-1" relative="1" as="geometry">
            <mxPoint x="1.01" y="-14.2" as="offset" />
          </mxGeometry>
        </mxCell>
        <mxCell id="M4qY9_0p-FFGt08aSmp1-542" style="edgeStyle=orthogonalEdgeStyle;rounded=0;orthogonalLoop=1;jettySize=auto;html=1;fontSize=22;" edge="1" parent="1" source="M4qY9_0p-FFGt08aSmp1-544" target="M4qY9_0p-FFGt08aSmp1-545">
          <mxGeometry relative="1" as="geometry" />
        </mxCell>
        <mxCell id="M4qY9_0p-FFGt08aSmp1-543" value="否" style="edgeLabel;html=1;align=center;verticalAlign=middle;resizable=0;points=[];fontSize=22;" vertex="1" connectable="0" parent="M4qY9_0p-FFGt08aSmp1-542">
          <mxGeometry x="0.2598" relative="1" as="geometry">
            <mxPoint x="-15.79" as="offset" />
          </mxGeometry>
        </mxCell>
        <mxCell id="M4qY9_0p-FFGt08aSmp1-544" value="&lt;span&gt;报文格式正确？&lt;/span&gt;" style="strokeWidth=2;html=1;shape=mxgraph.flowchart.decision;whiteSpace=wrap;fontSize=22;" vertex="1" parent="1">
          <mxGeometry x="-340" y="490" width="315" height="140" as="geometry" />
        </mxCell>
        <mxCell id="M4qY9_0p-FFGt08aSmp1-545" value="结束" style="strokeWidth=2;html=1;shape=mxgraph.flowchart.terminator;whiteSpace=wrap;fontSize=22;" vertex="1" parent="1">
          <mxGeometry x="67.5" y="530" width="100" height="60" as="geometry" />
        </mxCell>
        <mxCell id="M4qY9_0p-FFGt08aSmp1-546" value="结束" style="strokeWidth=2;html=1;shape=mxgraph.flowchart.terminator;whiteSpace=wrap;fontSize=22;" vertex="1" parent="1">
          <mxGeometry x="-232.5" y="825" width="100" height="60" as="geometry" />
        </mxCell>
        <mxCell id="M4qY9_0p-FFGt08aSmp1-547" style="edgeStyle=orthogonalEdgeStyle;rounded=0;orthogonalLoop=1;jettySize=auto;html=1;entryX=0;entryY=0.5;entryDx=0;entryDy=0;entryPerimeter=0;fontSize=22;" edge="1" parent="1" source="M4qY9_0p-FFGt08aSmp1-549" target="M4qY9_0p-FFGt08aSmp1-550">
          <mxGeometry relative="1" as="geometry" />
        </mxCell>
        <mxCell id="M4qY9_0p-FFGt08aSmp1-548" style="edgeStyle=orthogonalEdgeStyle;rounded=0;orthogonalLoop=1;jettySize=auto;html=1;fontSize=22;" edge="1" parent="1" source="M4qY9_0p-FFGt08aSmp1-549" target="M4qY9_0p-FFGt08aSmp1-555">
          <mxGeometry relative="1" as="geometry" />
        </mxCell>
        <mxCell id="M4qY9_0p-FFGt08aSmp1-549" value="开始" style="strokeWidth=2;html=1;shape=mxgraph.flowchart.terminator;whiteSpace=wrap;fontSize=22;" vertex="1" parent="1">
          <mxGeometry x="3709.37" y="160" width="100" height="60" as="geometry" />
        </mxCell>
        <mxCell id="M4qY9_0p-FFGt08aSmp1-550" value="&amp;nbsp; 报文处理函数流程" style="strokeWidth=2;html=1;shape=mxgraph.flowchart.annotation_1;align=left;pointerEvents=1;fontSize=22;" vertex="1" parent="1">
          <mxGeometry x="4000" y="160" width="230" height="60" as="geometry" />
        </mxCell>
        <mxCell id="M4qY9_0p-FFGt08aSmp1-551" value="" style="edgeStyle=orthogonalEdgeStyle;rounded=0;orthogonalLoop=1;jettySize=auto;html=1;fontSize=22;" edge="1" parent="1" source="M4qY9_0p-FFGt08aSmp1-555" target="M4qY9_0p-FFGt08aSmp1-570">
          <mxGeometry relative="1" as="geometry" />
        </mxCell>
        <mxCell id="M4qY9_0p-FFGt08aSmp1-552" value="是" style="edgeLabel;html=1;align=center;verticalAlign=middle;resizable=0;points=[];fontSize=22;" vertex="1" connectable="0" parent="M4qY9_0p-FFGt08aSmp1-551">
          <mxGeometry x="-0.2703" relative="1" as="geometry">
            <mxPoint x="4.899999999999999" as="offset" />
          </mxGeometry>
        </mxCell>
        <mxCell id="M4qY9_0p-FFGt08aSmp1-553" value="" style="edgeStyle=orthogonalEdgeStyle;rounded=0;orthogonalLoop=1;jettySize=auto;html=1;fontSize=22;" edge="1" parent="1" source="M4qY9_0p-FFGt08aSmp1-555" target="M4qY9_0p-FFGt08aSmp1-560">
          <mxGeometry relative="1" as="geometry" />
        </mxCell>
        <mxCell id="M4qY9_0p-FFGt08aSmp1-554" value="否" style="edgeLabel;html=1;align=center;verticalAlign=middle;resizable=0;points=[];fontSize=22;" vertex="1" connectable="0" parent="M4qY9_0p-FFGt08aSmp1-553">
          <mxGeometry x="-0.9144" y="-3" relative="1" as="geometry">
            <mxPoint x="3" y="55.94" as="offset" />
          </mxGeometry>
        </mxCell>
        <mxCell id="M4qY9_0p-FFGt08aSmp1-555" value="&lt;span&gt;开始采集指令？&lt;/span&gt;" style="strokeWidth=2;html=1;shape=mxgraph.flowchart.decision;whiteSpace=wrap;fontSize=22;" vertex="1" parent="1">
          <mxGeometry x="3640" y="320" width="238.75" height="105.49" as="geometry" />
        </mxCell>
        <mxCell id="M4qY9_0p-FFGt08aSmp1-556" style="edgeStyle=orthogonalEdgeStyle;rounded=0;orthogonalLoop=1;jettySize=auto;html=1;fontSize=22;" edge="1" parent="1" source="M4qY9_0p-FFGt08aSmp1-560" target="M4qY9_0p-FFGt08aSmp1-587">
          <mxGeometry relative="1" as="geometry" />
        </mxCell>
        <mxCell id="M4qY9_0p-FFGt08aSmp1-557" value="是" style="edgeLabel;html=1;align=center;verticalAlign=middle;resizable=0;points=[];fontSize=22;" vertex="1" connectable="0" parent="M4qY9_0p-FFGt08aSmp1-556">
          <mxGeometry x="0.1887" y="-2" relative="1" as="geometry">
            <mxPoint x="-27.82" y="-2.11" as="offset" />
          </mxGeometry>
        </mxCell>
        <mxCell id="M4qY9_0p-FFGt08aSmp1-558" value="" style="edgeStyle=orthogonalEdgeStyle;rounded=0;orthogonalLoop=1;jettySize=auto;html=1;fontSize=22;" edge="1" parent="1" source="M4qY9_0p-FFGt08aSmp1-560" target="M4qY9_0p-FFGt08aSmp1-565">
          <mxGeometry relative="1" as="geometry" />
        </mxCell>
        <mxCell id="M4qY9_0p-FFGt08aSmp1-559" value="否" style="edgeLabel;html=1;align=center;verticalAlign=middle;resizable=0;points=[];fontSize=22;" vertex="1" connectable="0" parent="M4qY9_0p-FFGt08aSmp1-558">
          <mxGeometry x="-0.6128" y="-1" relative="1" as="geometry">
            <mxPoint as="offset" />
          </mxGeometry>
        </mxCell>
        <mxCell id="M4qY9_0p-FFGt08aSmp1-560" value="&lt;span&gt;修改文件名指令？&lt;/span&gt;" style="strokeWidth=2;html=1;shape=mxgraph.flowchart.decision;whiteSpace=wrap;fontSize=22;" vertex="1" parent="1">
          <mxGeometry x="3640" y="1108" width="238.75" height="105.49" as="geometry" />
        </mxCell>
        <mxCell id="M4qY9_0p-FFGt08aSmp1-561" style="edgeStyle=orthogonalEdgeStyle;rounded=0;orthogonalLoop=1;jettySize=auto;html=1;entryX=0;entryY=0.5;entryDx=0;entryDy=0;fontSize=22;" edge="1" parent="1" source="M4qY9_0p-FFGt08aSmp1-565" target="M4qY9_0p-FFGt08aSmp1-589">
          <mxGeometry relative="1" as="geometry" />
        </mxCell>
        <mxCell id="M4qY9_0p-FFGt08aSmp1-562" value="是" style="edgeLabel;html=1;align=center;verticalAlign=middle;resizable=0;points=[];fontSize=22;" vertex="1" connectable="0" parent="M4qY9_0p-FFGt08aSmp1-561">
          <mxGeometry x="0.0002" y="21" relative="1" as="geometry">
            <mxPoint x="-22.65" y="0.5600000000000023" as="offset" />
          </mxGeometry>
        </mxCell>
        <mxCell id="M4qY9_0p-FFGt08aSmp1-563" style="edgeStyle=orthogonalEdgeStyle;rounded=0;orthogonalLoop=1;jettySize=auto;html=1;fontSize=22;" edge="1" parent="1" source="M4qY9_0p-FFGt08aSmp1-565" target="M4qY9_0p-FFGt08aSmp1-598">
          <mxGeometry relative="1" as="geometry" />
        </mxCell>
        <mxCell id="M4qY9_0p-FFGt08aSmp1-564" value="否" style="edgeLabel;html=1;align=center;verticalAlign=middle;resizable=0;points=[];fontSize=22;" vertex="1" connectable="0" parent="M4qY9_0p-FFGt08aSmp1-563">
          <mxGeometry x="-0.6774" y="3" relative="1" as="geometry">
            <mxPoint x="-3" y="-12.74" as="offset" />
          </mxGeometry>
        </mxCell>
        <mxCell id="M4qY9_0p-FFGt08aSmp1-565" value="&lt;span&gt;修改RTC指令？&lt;/span&gt;" style="strokeWidth=2;html=1;shape=mxgraph.flowchart.decision;whiteSpace=wrap;fontSize=22;" vertex="1" parent="1">
          <mxGeometry x="3640" y="1544.51" width="238.75" height="105.49" as="geometry" />
        </mxCell>
        <mxCell id="M4qY9_0p-FFGt08aSmp1-566" value="" style="edgeStyle=orthogonalEdgeStyle;rounded=0;orthogonalLoop=1;jettySize=auto;html=1;fontSize=22;" edge="1" parent="1" source="M4qY9_0p-FFGt08aSmp1-570" target="M4qY9_0p-FFGt08aSmp1-575">
          <mxGeometry relative="1" as="geometry" />
        </mxCell>
        <mxCell id="M4qY9_0p-FFGt08aSmp1-567" value="是" style="edgeLabel;html=1;align=center;verticalAlign=middle;resizable=0;points=[];fontSize=22;" vertex="1" connectable="0" parent="M4qY9_0p-FFGt08aSmp1-566">
          <mxGeometry x="-0.2931" y="-5" relative="1" as="geometry">
            <mxPoint x="15.54" y="-5" as="offset" />
          </mxGeometry>
        </mxCell>
        <mxCell id="M4qY9_0p-FFGt08aSmp1-568" style="edgeStyle=orthogonalEdgeStyle;rounded=0;orthogonalLoop=1;jettySize=auto;html=1;fontSize=22;" edge="1" parent="1" source="M4qY9_0p-FFGt08aSmp1-570" target="M4qY9_0p-FFGt08aSmp1-583">
          <mxGeometry relative="1" as="geometry" />
        </mxCell>
        <mxCell id="M4qY9_0p-FFGt08aSmp1-569" value="否" style="edgeLabel;html=1;align=center;verticalAlign=middle;resizable=0;points=[];fontSize=22;" vertex="1" connectable="0" parent="M4qY9_0p-FFGt08aSmp1-568">
          <mxGeometry x="-0.0037" relative="1" as="geometry">
            <mxPoint as="offset" />
          </mxGeometry>
        </mxCell>
        <mxCell id="M4qY9_0p-FFGt08aSmp1-570" value="传入数据为1？" style="strokeWidth=2;html=1;shape=mxgraph.flowchart.decision;whiteSpace=wrap;fontSize=22;" vertex="1" parent="1">
          <mxGeometry x="4059.3599999999988" y="320" width="238.75" height="105.49" as="geometry" />
        </mxCell>
        <mxCell id="M4qY9_0p-FFGt08aSmp1-571" style="edgeStyle=orthogonalEdgeStyle;rounded=0;orthogonalLoop=1;jettySize=auto;html=1;fontSize=22;exitX=0.5;exitY=1;exitDx=0;exitDy=0;exitPerimeter=0;" edge="1" parent="1" source="M4qY9_0p-FFGt08aSmp1-575" target="M4qY9_0p-FFGt08aSmp1-577">
          <mxGeometry relative="1" as="geometry" />
        </mxCell>
        <mxCell id="M4qY9_0p-FFGt08aSmp1-572" value="否" style="edgeLabel;html=1;align=center;verticalAlign=middle;resizable=0;points=[];fontSize=22;" vertex="1" connectable="0" parent="M4qY9_0p-FFGt08aSmp1-571">
          <mxGeometry x="-0.3816" y="1" relative="1" as="geometry">
            <mxPoint x="-1" y="14.88" as="offset" />
          </mxGeometry>
        </mxCell>
        <mxCell id="M4qY9_0p-FFGt08aSmp1-573" style="edgeStyle=orthogonalEdgeStyle;rounded=0;orthogonalLoop=1;jettySize=auto;html=1;fontSize=22;" edge="1" parent="1" source="M4qY9_0p-FFGt08aSmp1-575" target="M4qY9_0p-FFGt08aSmp1-579">
          <mxGeometry relative="1" as="geometry" />
        </mxCell>
        <mxCell id="M4qY9_0p-FFGt08aSmp1-574" value="是" style="edgeLabel;html=1;align=center;verticalAlign=middle;resizable=0;points=[];fontSize=22;" vertex="1" connectable="0" parent="M4qY9_0p-FFGt08aSmp1-573">
          <mxGeometry x="-0.644" y="-1" relative="1" as="geometry">
            <mxPoint x="15.54" y="-0.97" as="offset" />
          </mxGeometry>
        </mxCell>
        <mxCell id="M4qY9_0p-FFGt08aSmp1-575" value="U盘已插入？" style="strokeWidth=2;html=1;shape=mxgraph.flowchart.decision;whiteSpace=wrap;fontSize=22;" vertex="1" parent="1">
          <mxGeometry x="4439.359999999999" y="320" width="238.75" height="105.49" as="geometry" />
        </mxCell>
        <mxCell id="M4qY9_0p-FFGt08aSmp1-576" style="edgeStyle=orthogonalEdgeStyle;rounded=0;orthogonalLoop=1;jettySize=auto;html=1;fontSize=22;" edge="1" parent="1" source="M4qY9_0p-FFGt08aSmp1-577" target="M4qY9_0p-FFGt08aSmp1-598">
          <mxGeometry relative="1" as="geometry">
            <Array as="points">
              <mxPoint x="4559" y="2240" />
              <mxPoint x="3759" y="2240" />
            </Array>
          </mxGeometry>
        </mxCell>
        <mxCell id="M4qY9_0p-FFGt08aSmp1-577" value="提示：“请插入U盘”" style="rounded=1;whiteSpace=wrap;html=1;absoluteArcSize=1;arcSize=14;strokeWidth=2;fontSize=22;" vertex="1" parent="1">
          <mxGeometry x="4424.36" y="520" width="268.75" height="60" as="geometry" />
        </mxCell>
        <mxCell id="M4qY9_0p-FFGt08aSmp1-578" value="" style="edgeStyle=orthogonalEdgeStyle;rounded=0;orthogonalLoop=1;jettySize=auto;html=1;fontSize=22;" edge="1" parent="1" source="M4qY9_0p-FFGt08aSmp1-579" target="M4qY9_0p-FFGt08aSmp1-581">
          <mxGeometry relative="1" as="geometry" />
        </mxCell>
        <mxCell id="M4qY9_0p-FFGt08aSmp1-579" value="设置start标志为1" style="rounded=1;whiteSpace=wrap;html=1;absoluteArcSize=1;arcSize=14;strokeWidth=2;fontSize=22;" vertex="1" parent="1">
          <mxGeometry x="4769.36" y="520" width="268.75" height="60" as="geometry" />
        </mxCell>
        <mxCell id="M4qY9_0p-FFGt08aSmp1-580" style="edgeStyle=orthogonalEdgeStyle;rounded=0;orthogonalLoop=1;jettySize=auto;html=1;fontSize=22;" edge="1" parent="1" source="M4qY9_0p-FFGt08aSmp1-581" target="M4qY9_0p-FFGt08aSmp1-598">
          <mxGeometry relative="1" as="geometry">
            <Array as="points">
              <mxPoint x="4904" y="840" />
              <mxPoint x="4560" y="840" />
              <mxPoint x="4560" y="2240" />
              <mxPoint x="3759" y="2240" />
            </Array>
          </mxGeometry>
        </mxCell>
        <mxCell id="M4qY9_0p-FFGt08aSmp1-581" value="提示：“正在采集”" style="rounded=1;whiteSpace=wrap;html=1;absoluteArcSize=1;arcSize=14;strokeWidth=2;fontSize=22;" vertex="1" parent="1">
          <mxGeometry x="4769.36" y="660" width="268.75" height="60" as="geometry" />
        </mxCell>
        <mxCell id="M4qY9_0p-FFGt08aSmp1-582" value="" style="edgeStyle=orthogonalEdgeStyle;rounded=0;orthogonalLoop=1;jettySize=auto;html=1;fontSize=22;" edge="1" parent="1" source="M4qY9_0p-FFGt08aSmp1-583" target="M4qY9_0p-FFGt08aSmp1-585">
          <mxGeometry relative="1" as="geometry" />
        </mxCell>
        <mxCell id="M4qY9_0p-FFGt08aSmp1-583" value="设置start标志为0" style="rounded=1;whiteSpace=wrap;html=1;absoluteArcSize=1;arcSize=14;strokeWidth=2;fontSize=22;" vertex="1" parent="1">
          <mxGeometry x="4044.3599999999997" y="520" width="268.75" height="60" as="geometry" />
        </mxCell>
        <mxCell id="M4qY9_0p-FFGt08aSmp1-584" style="edgeStyle=orthogonalEdgeStyle;rounded=0;orthogonalLoop=1;jettySize=auto;html=1;fontSize=22;" edge="1" parent="1" source="M4qY9_0p-FFGt08aSmp1-585" target="M4qY9_0p-FFGt08aSmp1-598">
          <mxGeometry relative="1" as="geometry">
            <Array as="points">
              <mxPoint x="4179" y="840" />
              <mxPoint x="4560" y="840" />
              <mxPoint x="4560" y="2240" />
              <mxPoint x="3759" y="2240" />
            </Array>
          </mxGeometry>
        </mxCell>
        <mxCell id="M4qY9_0p-FFGt08aSmp1-585" value="提示：“停止采集”" style="rounded=1;whiteSpace=wrap;html=1;absoluteArcSize=1;arcSize=14;strokeWidth=2;fontSize=22;" vertex="1" parent="1">
          <mxGeometry x="4044.3599999999997" y="660" width="268.75" height="60" as="geometry" />
        </mxCell>
        <mxCell id="M4qY9_0p-FFGt08aSmp1-586" style="edgeStyle=orthogonalEdgeStyle;rounded=0;orthogonalLoop=1;jettySize=auto;html=1;fontSize=22;" edge="1" parent="1" source="M4qY9_0p-FFGt08aSmp1-587" target="M4qY9_0p-FFGt08aSmp1-598">
          <mxGeometry relative="1" as="geometry">
            <Array as="points">
              <mxPoint x="4420" y="1161" />
              <mxPoint x="4420" y="2230" />
              <mxPoint x="3759" y="2230" />
            </Array>
          </mxGeometry>
        </mxCell>
        <mxCell id="M4qY9_0p-FFGt08aSmp1-587" value="设置文件名" style="rounded=1;whiteSpace=wrap;html=1;absoluteArcSize=1;arcSize=14;strokeWidth=2;fontSize=22;" vertex="1" parent="1">
          <mxGeometry x="4044.3599999999997" y="1130.75" width="268.75" height="60" as="geometry" />
        </mxCell>
        <mxCell id="M4qY9_0p-FFGt08aSmp1-588" value="" style="edgeStyle=orthogonalEdgeStyle;rounded=0;orthogonalLoop=1;jettySize=auto;html=1;fontSize=22;" edge="1" parent="1" source="M4qY9_0p-FFGt08aSmp1-589" target="M4qY9_0p-FFGt08aSmp1-591">
          <mxGeometry relative="1" as="geometry" />
        </mxCell>
        <mxCell id="M4qY9_0p-FFGt08aSmp1-589" value="设置传来的日期和时间" style="rounded=1;whiteSpace=wrap;html=1;absoluteArcSize=1;arcSize=14;strokeWidth=2;fontSize=22;" vertex="1" parent="1">
          <mxGeometry x="4044.3599999999997" y="1567.26" width="268.75" height="60" as="geometry" />
        </mxCell>
        <mxCell id="M4qY9_0p-FFGt08aSmp1-590" value="" style="edgeStyle=orthogonalEdgeStyle;rounded=0;orthogonalLoop=1;jettySize=auto;html=1;fontSize=22;" edge="1" parent="1" source="M4qY9_0p-FFGt08aSmp1-591" target="M4qY9_0p-FFGt08aSmp1-593">
          <mxGeometry relative="1" as="geometry" />
        </mxCell>
        <mxCell id="M4qY9_0p-FFGt08aSmp1-591" value="解锁RTC控制寄存器" style="rounded=1;whiteSpace=wrap;html=1;absoluteArcSize=1;arcSize=14;strokeWidth=2;fontSize=22;" vertex="1" parent="1">
          <mxGeometry x="4044.3599999999997" y="1707.26" width="268.75" height="60" as="geometry" />
        </mxCell>
        <mxCell id="M4qY9_0p-FFGt08aSmp1-592" value="" style="edgeStyle=orthogonalEdgeStyle;rounded=0;orthogonalLoop=1;jettySize=auto;html=1;fontSize=22;" edge="1" parent="1" source="M4qY9_0p-FFGt08aSmp1-593" target="M4qY9_0p-FFGt08aSmp1-595">
          <mxGeometry relative="1" as="geometry" />
        </mxCell>
        <mxCell id="M4qY9_0p-FFGt08aSmp1-593" value="通过日期时间计算CNT值" style="rounded=1;whiteSpace=wrap;html=1;absoluteArcSize=1;arcSize=14;strokeWidth=2;fontSize=22;" vertex="1" parent="1">
          <mxGeometry x="4044.3599999999997" y="1847.26" width="268.75" height="60" as="geometry" />
        </mxCell>
        <mxCell id="M4qY9_0p-FFGt08aSmp1-594" value="" style="edgeStyle=orthogonalEdgeStyle;rounded=0;orthogonalLoop=1;jettySize=auto;html=1;fontSize=22;" edge="1" parent="1" source="M4qY9_0p-FFGt08aSmp1-595" target="M4qY9_0p-FFGt08aSmp1-597">
          <mxGeometry relative="1" as="geometry" />
        </mxCell>
        <mxCell id="M4qY9_0p-FFGt08aSmp1-595" value="设置新的CNT值" style="rounded=1;whiteSpace=wrap;html=1;absoluteArcSize=1;arcSize=14;strokeWidth=2;fontSize=22;" vertex="1" parent="1">
          <mxGeometry x="4044.3599999999997" y="1987.26" width="268.75" height="60" as="geometry" />
        </mxCell>
        <mxCell id="M4qY9_0p-FFGt08aSmp1-596" style="edgeStyle=orthogonalEdgeStyle;rounded=0;orthogonalLoop=1;jettySize=auto;html=1;fontSize=22;" edge="1" parent="1" source="M4qY9_0p-FFGt08aSmp1-597" target="M4qY9_0p-FFGt08aSmp1-598">
          <mxGeometry relative="1" as="geometry">
            <Array as="points">
              <mxPoint x="4179" y="2220" />
              <mxPoint x="3759" y="2220" />
            </Array>
          </mxGeometry>
        </mxCell>
        <mxCell id="M4qY9_0p-FFGt08aSmp1-597" value="锁住RTC控制寄存器" style="rounded=1;whiteSpace=wrap;html=1;absoluteArcSize=1;arcSize=14;strokeWidth=2;fontSize=22;" vertex="1" parent="1">
          <mxGeometry x="4044.3599999999997" y="2127.26" width="268.75" height="60" as="geometry" />
        </mxCell>
        <mxCell id="M4qY9_0p-FFGt08aSmp1-598" value="结束" style="strokeWidth=2;html=1;shape=mxgraph.flowchart.terminator;whiteSpace=wrap;fontSize=22;" vertex="1" parent="1">
          <mxGeometry x="3709.38" y="2270" width="100" height="60" as="geometry" />
        </mxCell>
        <mxCell id="M4qY9_0p-FFGt08aSmp1-599" style="edgeStyle=orthogonalEdgeStyle;rounded=0;orthogonalLoop=1;jettySize=auto;html=1;entryX=0;entryY=0.5;entryDx=0;entryDy=0;entryPerimeter=0;fontSize=22;" edge="1" parent="1" source="M4qY9_0p-FFGt08aSmp1-601" target="M4qY9_0p-FFGt08aSmp1-602">
          <mxGeometry relative="1" as="geometry" />
        </mxCell>
        <mxCell id="M4qY9_0p-FFGt08aSmp1-600" style="edgeStyle=orthogonalEdgeStyle;rounded=0;orthogonalLoop=1;jettySize=auto;html=1;fontSize=22;" edge="1" parent="1" source="M4qY9_0p-FFGt08aSmp1-601" target="M4qY9_0p-FFGt08aSmp1-607">
          <mxGeometry relative="1" as="geometry" />
        </mxCell>
        <mxCell id="M4qY9_0p-FFGt08aSmp1-601" value="开始" style="strokeWidth=2;html=1;shape=mxgraph.flowchart.terminator;whiteSpace=wrap;fontSize=22;" vertex="1" parent="1">
          <mxGeometry x="-3900.63" y="160" width="100" height="60" as="geometry" />
        </mxCell>
        <mxCell id="M4qY9_0p-FFGt08aSmp1-602" value="&amp;nbsp; 上位机处理流程" style="strokeWidth=2;html=1;shape=mxgraph.flowchart.annotation_1;align=left;pointerEvents=1;fontSize=22;" vertex="1" parent="1">
          <mxGeometry x="-3610" y="160" width="230" height="60" as="geometry" />
        </mxCell>
        <mxCell id="M4qY9_0p-FFGt08aSmp1-603" style="edgeStyle=orthogonalEdgeStyle;rounded=0;orthogonalLoop=1;jettySize=auto;html=1;entryX=0;entryY=0.5;entryDx=0;entryDy=0;fontSize=22;" edge="1" parent="1" source="M4qY9_0p-FFGt08aSmp1-607" target="M4qY9_0p-FFGt08aSmp1-648">
          <mxGeometry relative="1" as="geometry" />
        </mxCell>
        <mxCell id="M4qY9_0p-FFGt08aSmp1-604" value="是" style="edgeLabel;html=1;align=center;verticalAlign=middle;resizable=0;points=[];fontSize=22;" vertex="1" connectable="0" parent="M4qY9_0p-FFGt08aSmp1-603">
          <mxGeometry x="0.0006" y="19" relative="1" as="geometry">
            <mxPoint x="-10.16" y="19.07" as="offset" />
          </mxGeometry>
        </mxCell>
        <mxCell id="M4qY9_0p-FFGt08aSmp1-605" value="" style="edgeStyle=orthogonalEdgeStyle;rounded=0;orthogonalLoop=1;jettySize=auto;html=1;fontSize=22;" edge="1" parent="1" source="M4qY9_0p-FFGt08aSmp1-607" target="M4qY9_0p-FFGt08aSmp1-612">
          <mxGeometry relative="1" as="geometry" />
        </mxCell>
        <mxCell id="M4qY9_0p-FFGt08aSmp1-606" value="否" style="edgeLabel;html=1;align=center;verticalAlign=middle;resizable=0;points=[];fontSize=22;" vertex="1" connectable="0" parent="M4qY9_0p-FFGt08aSmp1-605">
          <mxGeometry x="-0.2414" y="-1" relative="1" as="geometry">
            <mxPoint x="1" y="4.51" as="offset" />
          </mxGeometry>
        </mxCell>
        <mxCell id="M4qY9_0p-FFGt08aSmp1-607" value="接受提示信息？" style="strokeWidth=2;html=1;shape=mxgraph.flowchart.decision;whiteSpace=wrap;fontSize=22;" vertex="1" parent="1">
          <mxGeometry x="-3970.000000000001" y="300" width="238.75" height="105.49" as="geometry" />
        </mxCell>
        <mxCell id="M4qY9_0p-FFGt08aSmp1-608" style="edgeStyle=orthogonalEdgeStyle;rounded=0;orthogonalLoop=1;jettySize=auto;html=1;entryX=0;entryY=0.5;entryDx=0;entryDy=0;fontSize=22;" edge="1" parent="1" source="M4qY9_0p-FFGt08aSmp1-612" target="M4qY9_0p-FFGt08aSmp1-650">
          <mxGeometry relative="1" as="geometry" />
        </mxCell>
        <mxCell id="M4qY9_0p-FFGt08aSmp1-609" value="是" style="edgeLabel;html=1;align=center;verticalAlign=middle;resizable=0;points=[];fontSize=22;" vertex="1" connectable="0" parent="M4qY9_0p-FFGt08aSmp1-608">
          <mxGeometry x="-0.1822" y="-2" relative="1" as="geometry">
            <mxPoint x="0.6199999999999992" y="-0.3" as="offset" />
          </mxGeometry>
        </mxCell>
        <mxCell id="M4qY9_0p-FFGt08aSmp1-610" value="" style="edgeStyle=orthogonalEdgeStyle;rounded=0;orthogonalLoop=1;jettySize=auto;html=1;fontSize=22;" edge="1" parent="1" source="M4qY9_0p-FFGt08aSmp1-612" target="M4qY9_0p-FFGt08aSmp1-617">
          <mxGeometry relative="1" as="geometry" />
        </mxCell>
        <mxCell id="M4qY9_0p-FFGt08aSmp1-611" value="否" style="edgeLabel;html=1;align=center;verticalAlign=middle;resizable=0;points=[];fontSize=22;" vertex="1" connectable="0" parent="M4qY9_0p-FFGt08aSmp1-610">
          <mxGeometry x="-0.2913" relative="1" as="geometry">
            <mxPoint y="6.35" as="offset" />
          </mxGeometry>
        </mxCell>
        <mxCell id="M4qY9_0p-FFGt08aSmp1-612" value="接受实时曲线信息？" style="strokeWidth=2;html=1;shape=mxgraph.flowchart.decision;whiteSpace=wrap;fontSize=22;" vertex="1" parent="1">
          <mxGeometry x="-3970.000000000001" y="485.49" width="238.75" height="105.49" as="geometry" />
        </mxCell>
        <mxCell id="M4qY9_0p-FFGt08aSmp1-613" style="edgeStyle=orthogonalEdgeStyle;rounded=0;orthogonalLoop=1;jettySize=auto;html=1;fontSize=22;" edge="1" parent="1" source="M4qY9_0p-FFGt08aSmp1-617" target="M4qY9_0p-FFGt08aSmp1-652">
          <mxGeometry relative="1" as="geometry" />
        </mxCell>
        <mxCell id="M4qY9_0p-FFGt08aSmp1-614" value="是" style="edgeLabel;html=1;align=center;verticalAlign=middle;resizable=0;points=[];fontSize=22;" vertex="1" connectable="0" parent="M4qY9_0p-FFGt08aSmp1-613">
          <mxGeometry x="-0.2646" relative="1" as="geometry">
            <mxPoint x="5.62" y="-0.06" as="offset" />
          </mxGeometry>
        </mxCell>
        <mxCell id="M4qY9_0p-FFGt08aSmp1-615" value="" style="edgeStyle=orthogonalEdgeStyle;rounded=0;orthogonalLoop=1;jettySize=auto;html=1;fontSize=22;" edge="1" parent="1" source="M4qY9_0p-FFGt08aSmp1-617" target="M4qY9_0p-FFGt08aSmp1-622">
          <mxGeometry relative="1" as="geometry" />
        </mxCell>
        <mxCell id="M4qY9_0p-FFGt08aSmp1-616" value="否" style="edgeLabel;html=1;align=center;verticalAlign=middle;resizable=0;points=[];fontSize=22;" vertex="1" connectable="0" parent="M4qY9_0p-FFGt08aSmp1-615">
          <mxGeometry x="-0.2106" y="-1" relative="1" as="geometry">
            <mxPoint x="0.99" as="offset" />
          </mxGeometry>
        </mxCell>
        <mxCell id="M4qY9_0p-FFGt08aSmp1-617" value="修改背光亮度？" style="strokeWidth=2;html=1;shape=mxgraph.flowchart.decision;whiteSpace=wrap;fontSize=22;" vertex="1" parent="1">
          <mxGeometry x="-3970.000000000001" y="664.51" width="238.75" height="105.49" as="geometry" />
        </mxCell>
        <mxCell id="M4qY9_0p-FFGt08aSmp1-618" value="" style="edgeStyle=orthogonalEdgeStyle;rounded=0;orthogonalLoop=1;jettySize=auto;html=1;fontSize=22;" edge="1" parent="1" source="M4qY9_0p-FFGt08aSmp1-622" target="M4qY9_0p-FFGt08aSmp1-627">
          <mxGeometry relative="1" as="geometry" />
        </mxCell>
        <mxCell id="M4qY9_0p-FFGt08aSmp1-619" value="否" style="edgeLabel;html=1;align=center;verticalAlign=middle;resizable=0;points=[];fontSize=22;" vertex="1" connectable="0" parent="M4qY9_0p-FFGt08aSmp1-618">
          <mxGeometry x="-0.1989" y="1" relative="1" as="geometry">
            <mxPoint x="-1.01" y="3.1" as="offset" />
          </mxGeometry>
        </mxCell>
        <mxCell id="M4qY9_0p-FFGt08aSmp1-620" style="edgeStyle=orthogonalEdgeStyle;rounded=0;orthogonalLoop=1;jettySize=auto;html=1;fontSize=22;" edge="1" parent="1" source="M4qY9_0p-FFGt08aSmp1-622" target="M4qY9_0p-FFGt08aSmp1-721">
          <mxGeometry relative="1" as="geometry" />
        </mxCell>
        <mxCell id="M4qY9_0p-FFGt08aSmp1-621" value="是" style="edgeLabel;html=1;align=center;verticalAlign=middle;resizable=0;points=[];fontSize=22;" vertex="1" connectable="0" parent="M4qY9_0p-FFGt08aSmp1-620">
          <mxGeometry x="-0.1342" y="1" relative="1" as="geometry">
            <mxPoint as="offset" />
          </mxGeometry>
        </mxCell>
        <mxCell id="M4qY9_0p-FFGt08aSmp1-622" value="用户开始采集？" style="strokeWidth=2;html=1;shape=mxgraph.flowchart.decision;whiteSpace=wrap;fontSize=22;" vertex="1" parent="1">
          <mxGeometry x="-3970.000000000001" y="856.36" width="238.75" height="105.49" as="geometry" />
        </mxCell>
        <mxCell id="M4qY9_0p-FFGt08aSmp1-623" style="edgeStyle=orthogonalEdgeStyle;rounded=0;orthogonalLoop=1;jettySize=auto;html=1;fontSize=22;" edge="1" parent="1" source="M4qY9_0p-FFGt08aSmp1-627" target="M4qY9_0p-FFGt08aSmp1-723">
          <mxGeometry relative="1" as="geometry" />
        </mxCell>
        <mxCell id="M4qY9_0p-FFGt08aSmp1-624" value="是" style="edgeLabel;html=1;align=center;verticalAlign=middle;resizable=0;points=[];fontSize=22;" vertex="1" connectable="0" parent="M4qY9_0p-FFGt08aSmp1-623">
          <mxGeometry x="-0.2542" y="-2" relative="1" as="geometry">
            <mxPoint x="6.27" y="-0.4" as="offset" />
          </mxGeometry>
        </mxCell>
        <mxCell id="M4qY9_0p-FFGt08aSmp1-625" value="" style="edgeStyle=orthogonalEdgeStyle;rounded=0;orthogonalLoop=1;jettySize=auto;html=1;fontSize=22;" edge="1" parent="1" source="M4qY9_0p-FFGt08aSmp1-627" target="M4qY9_0p-FFGt08aSmp1-632">
          <mxGeometry relative="1" as="geometry" />
        </mxCell>
        <mxCell id="M4qY9_0p-FFGt08aSmp1-626" value="否" style="edgeLabel;html=1;align=center;verticalAlign=middle;resizable=0;points=[];fontSize=22;" vertex="1" connectable="0" parent="M4qY9_0p-FFGt08aSmp1-625">
          <mxGeometry x="-0.3014" y="2" relative="1" as="geometry">
            <mxPoint x="-2.01" y="7.74" as="offset" />
          </mxGeometry>
        </mxCell>
        <mxCell id="M4qY9_0p-FFGt08aSmp1-627" value="用户终止采集？" style="strokeWidth=2;html=1;shape=mxgraph.flowchart.decision;whiteSpace=wrap;fontSize=22;" vertex="1" parent="1">
          <mxGeometry x="-3970.000000000001" y="1041.85" width="238.75" height="105.49" as="geometry" />
        </mxCell>
        <mxCell id="M4qY9_0p-FFGt08aSmp1-628" style="edgeStyle=orthogonalEdgeStyle;rounded=0;orthogonalLoop=1;jettySize=auto;html=1;fontSize=22;" edge="1" parent="1" source="M4qY9_0p-FFGt08aSmp1-632" target="M4qY9_0p-FFGt08aSmp1-725">
          <mxGeometry relative="1" as="geometry" />
        </mxCell>
        <mxCell id="M4qY9_0p-FFGt08aSmp1-629" value="是" style="edgeLabel;html=1;align=center;verticalAlign=middle;resizable=0;points=[];fontSize=22;" vertex="1" connectable="0" parent="M4qY9_0p-FFGt08aSmp1-628">
          <mxGeometry x="0.0006" y="-16" relative="1" as="geometry">
            <mxPoint x="-9.440000000000001" y="-15.99" as="offset" />
          </mxGeometry>
        </mxCell>
        <mxCell id="M4qY9_0p-FFGt08aSmp1-630" value="" style="edgeStyle=orthogonalEdgeStyle;rounded=0;orthogonalLoop=1;jettySize=auto;html=1;fontSize=22;" edge="1" parent="1" source="M4qY9_0p-FFGt08aSmp1-632" target="M4qY9_0p-FFGt08aSmp1-637">
          <mxGeometry relative="1" as="geometry" />
        </mxCell>
        <mxCell id="M4qY9_0p-FFGt08aSmp1-631" value="否" style="edgeLabel;html=1;align=center;verticalAlign=middle;resizable=0;points=[];fontSize=22;" vertex="1" connectable="0" parent="M4qY9_0p-FFGt08aSmp1-630">
          <mxGeometry x="-0.1947" y="1" relative="1" as="geometry">
            <mxPoint x="-1.01" y="6.01" as="offset" />
          </mxGeometry>
        </mxCell>
        <mxCell id="M4qY9_0p-FFGt08aSmp1-632" value="用户修改RTC？" style="strokeWidth=2;html=1;shape=mxgraph.flowchart.decision;whiteSpace=wrap;fontSize=22;" vertex="1" parent="1">
          <mxGeometry x="-3970.000000000001" y="1227.34" width="238.75" height="105.49" as="geometry" />
        </mxCell>
        <mxCell id="M4qY9_0p-FFGt08aSmp1-633" style="edgeStyle=orthogonalEdgeStyle;rounded=0;orthogonalLoop=1;jettySize=auto;html=1;fontSize=22;" edge="1" parent="1" source="M4qY9_0p-FFGt08aSmp1-637" target="M4qY9_0p-FFGt08aSmp1-727">
          <mxGeometry relative="1" as="geometry" />
        </mxCell>
        <mxCell id="M4qY9_0p-FFGt08aSmp1-634" value="是" style="edgeLabel;html=1;align=center;verticalAlign=middle;resizable=0;points=[];fontSize=22;" vertex="1" connectable="0" parent="M4qY9_0p-FFGt08aSmp1-633">
          <mxGeometry x="-0.2458" y="-1" relative="1" as="geometry">
            <mxPoint x="5.73" y="-1.02" as="offset" />
          </mxGeometry>
        </mxCell>
        <mxCell id="M4qY9_0p-FFGt08aSmp1-635" value="" style="edgeStyle=orthogonalEdgeStyle;rounded=0;orthogonalLoop=1;jettySize=auto;html=1;fontSize=22;" edge="1" parent="1" source="M4qY9_0p-FFGt08aSmp1-637" target="M4qY9_0p-FFGt08aSmp1-642">
          <mxGeometry relative="1" as="geometry" />
        </mxCell>
        <mxCell id="M4qY9_0p-FFGt08aSmp1-636" value="否" style="edgeLabel;html=1;align=center;verticalAlign=middle;resizable=0;points=[];fontSize=22;" vertex="1" connectable="0" parent="M4qY9_0p-FFGt08aSmp1-635">
          <mxGeometry x="-0.1791" y="1" relative="1" as="geometry">
            <mxPoint x="-1.01" y="5.07" as="offset" />
          </mxGeometry>
        </mxCell>
        <mxCell id="M4qY9_0p-FFGt08aSmp1-637" value="用户修改文件名？" style="strokeWidth=2;html=1;shape=mxgraph.flowchart.decision;whiteSpace=wrap;fontSize=22;" vertex="1" parent="1">
          <mxGeometry x="-3970.000000000001" y="1412.83" width="238.75" height="105.49" as="geometry" />
        </mxCell>
        <mxCell id="M4qY9_0p-FFGt08aSmp1-638" style="edgeStyle=orthogonalEdgeStyle;rounded=0;orthogonalLoop=1;jettySize=auto;html=1;fontSize=22;" edge="1" parent="1" source="M4qY9_0p-FFGt08aSmp1-642" target="M4qY9_0p-FFGt08aSmp1-729">
          <mxGeometry relative="1" as="geometry" />
        </mxCell>
        <mxCell id="M4qY9_0p-FFGt08aSmp1-639" value="是" style="edgeLabel;html=1;align=center;verticalAlign=middle;resizable=0;points=[];fontSize=22;" vertex="1" connectable="0" parent="M4qY9_0p-FFGt08aSmp1-638">
          <mxGeometry x="0.0012" y="12" relative="1" as="geometry">
            <mxPoint x="-12" y="12.02" as="offset" />
          </mxGeometry>
        </mxCell>
        <mxCell id="M4qY9_0p-FFGt08aSmp1-640" value="" style="edgeStyle=orthogonalEdgeStyle;rounded=0;orthogonalLoop=1;jettySize=auto;html=1;fontSize=22;" edge="1" parent="1" source="M4qY9_0p-FFGt08aSmp1-642" target="M4qY9_0p-FFGt08aSmp1-646">
          <mxGeometry relative="1" as="geometry" />
        </mxCell>
        <mxCell id="M4qY9_0p-FFGt08aSmp1-641" value="否" style="edgeLabel;html=1;align=center;verticalAlign=middle;resizable=0;points=[];fontSize=22;" vertex="1" connectable="0" parent="M4qY9_0p-FFGt08aSmp1-640">
          <mxGeometry x="-0.2544" y="-1" relative="1" as="geometry">
            <mxPoint as="offset" />
          </mxGeometry>
        </mxCell>
        <mxCell id="M4qY9_0p-FFGt08aSmp1-642" value="用户查看版本信息？" style="strokeWidth=2;html=1;shape=mxgraph.flowchart.decision;whiteSpace=wrap;fontSize=22;" vertex="1" parent="1">
          <mxGeometry x="-3970.000000000001" y="1598.32" width="238.75" height="105.49" as="geometry" />
        </mxCell>
        <mxCell id="M4qY9_0p-FFGt08aSmp1-643" style="edgeStyle=orthogonalEdgeStyle;rounded=0;orthogonalLoop=1;jettySize=auto;html=1;fontSize=22;" edge="1" parent="1" source="M4qY9_0p-FFGt08aSmp1-646" target="M4qY9_0p-FFGt08aSmp1-730">
          <mxGeometry relative="1" as="geometry" />
        </mxCell>
        <mxCell id="M4qY9_0p-FFGt08aSmp1-644" value="是" style="edgeLabel;html=1;align=center;verticalAlign=middle;resizable=0;points=[];fontSize=22;" vertex="1" connectable="0" parent="M4qY9_0p-FFGt08aSmp1-643">
          <mxGeometry x="-0.1764" y="-2" relative="1" as="geometry">
            <mxPoint as="offset" />
          </mxGeometry>
        </mxCell>
        <mxCell id="M4qY9_0p-FFGt08aSmp1-645" style="edgeStyle=orthogonalEdgeStyle;rounded=0;orthogonalLoop=1;jettySize=auto;html=1;fontSize=22;entryX=0.548;entryY=0.059;entryDx=0;entryDy=0;entryPerimeter=0;" edge="1" parent="1" source="M4qY9_0p-FFGt08aSmp1-646" target="M4qY9_0p-FFGt08aSmp1-607">
          <mxGeometry relative="1" as="geometry">
            <mxPoint x="-3230" y="236.25" as="targetPoint" />
            <Array as="points">
              <mxPoint x="-3190" y="1837" />
              <mxPoint x="-3190" y="266" />
              <mxPoint x="-3839" y="266" />
            </Array>
          </mxGeometry>
        </mxCell>
        <mxCell id="M4qY9_0p-FFGt08aSmp1-646" value="用户终止程序？" style="strokeWidth=2;html=1;shape=mxgraph.flowchart.decision;whiteSpace=wrap;fontSize=22;" vertex="1" parent="1">
          <mxGeometry x="-3970.000000000001" y="1783.81" width="238.75" height="105.49" as="geometry" />
        </mxCell>
        <mxCell id="M4qY9_0p-FFGt08aSmp1-647" style="edgeStyle=orthogonalEdgeStyle;rounded=0;orthogonalLoop=1;jettySize=auto;html=1;fontSize=22;" edge="1" parent="1" source="M4qY9_0p-FFGt08aSmp1-648" target="M4qY9_0p-FFGt08aSmp1-646">
          <mxGeometry relative="1" as="geometry">
            <Array as="points">
              <mxPoint x="-3260" y="353.25" />
              <mxPoint x="-3260" y="1756.25" />
              <mxPoint x="-3851" y="1756.25" />
            </Array>
          </mxGeometry>
        </mxCell>
        <mxCell id="M4qY9_0p-FFGt08aSmp1-648" value="显示提示信息" style="rounded=1;whiteSpace=wrap;html=1;absoluteArcSize=1;arcSize=14;strokeWidth=2;fontSize=22;" vertex="1" parent="1">
          <mxGeometry x="-3610" y="322.74" width="300" height="60" as="geometry" />
        </mxCell>
        <mxCell id="M4qY9_0p-FFGt08aSmp1-649" style="edgeStyle=orthogonalEdgeStyle;rounded=0;orthogonalLoop=1;jettySize=auto;html=1;fontSize=22;" edge="1" parent="1" source="M4qY9_0p-FFGt08aSmp1-650" target="M4qY9_0p-FFGt08aSmp1-646">
          <mxGeometry relative="1" as="geometry">
            <Array as="points">
              <mxPoint x="-3260" y="538.25" />
              <mxPoint x="-3260" y="1756.25" />
              <mxPoint x="-3851" y="1756.25" />
            </Array>
          </mxGeometry>
        </mxCell>
        <mxCell id="M4qY9_0p-FFGt08aSmp1-650" value="显示实时曲线" style="rounded=1;whiteSpace=wrap;html=1;absoluteArcSize=1;arcSize=14;strokeWidth=2;fontSize=22;" vertex="1" parent="1">
          <mxGeometry x="-3610" y="508.23" width="300" height="60" as="geometry" />
        </mxCell>
        <mxCell id="M4qY9_0p-FFGt08aSmp1-651" style="edgeStyle=orthogonalEdgeStyle;rounded=0;orthogonalLoop=1;jettySize=auto;html=1;fontSize=22;" edge="1" parent="1" source="M4qY9_0p-FFGt08aSmp1-652" target="M4qY9_0p-FFGt08aSmp1-646">
          <mxGeometry relative="1" as="geometry">
            <Array as="points">
              <mxPoint x="-3260" y="717.25" />
              <mxPoint x="-3260" y="1756.25" />
              <mxPoint x="-3851" y="1756.25" />
            </Array>
          </mxGeometry>
        </mxCell>
        <mxCell id="M4qY9_0p-FFGt08aSmp1-652" value="修改背光亮度" style="rounded=1;whiteSpace=wrap;html=1;absoluteArcSize=1;arcSize=14;strokeWidth=2;fontSize=22;" vertex="1" parent="1">
          <mxGeometry x="-3610" y="687.25" width="300" height="60" as="geometry" />
        </mxCell>
        <mxCell id="M4qY9_0p-FFGt08aSmp1-653" value="&amp;nbsp; UART2中断函数 暂存数据功能流程" style="strokeWidth=2;html=1;shape=mxgraph.flowchart.annotation_1;align=left;pointerEvents=1;fontSize=22;" vertex="1" parent="1">
          <mxGeometry x="-1139.8600000000001" y="160" width="370" height="60" as="geometry" />
        </mxCell>
        <mxCell id="M4qY9_0p-FFGt08aSmp1-654" style="edgeStyle=orthogonalEdgeStyle;rounded=0;orthogonalLoop=1;jettySize=auto;html=1;entryX=0;entryY=0.5;entryDx=0;entryDy=0;entryPerimeter=0;fontSize=22;" edge="1" parent="1" source="M4qY9_0p-FFGt08aSmp1-656" target="M4qY9_0p-FFGt08aSmp1-657">
          <mxGeometry relative="1" as="geometry" />
        </mxCell>
        <mxCell id="M4qY9_0p-FFGt08aSmp1-655" style="edgeStyle=orthogonalEdgeStyle;rounded=0;orthogonalLoop=1;jettySize=auto;html=1;" edge="1" parent="1" source="M4qY9_0p-FFGt08aSmp1-656" target="M4qY9_0p-FFGt08aSmp1-683">
          <mxGeometry relative="1" as="geometry" />
        </mxCell>
        <mxCell id="M4qY9_0p-FFGt08aSmp1-656" value="开始" style="strokeWidth=2;html=1;shape=mxgraph.flowchart.terminator;whiteSpace=wrap;fontSize=22;" vertex="1" parent="1">
          <mxGeometry x="-2610" y="160" width="100" height="60" as="geometry" />
        </mxCell>
        <mxCell id="M4qY9_0p-FFGt08aSmp1-657" value="下位机主程序流程" style="strokeWidth=2;html=1;shape=mxgraph.flowchart.annotation_1;align=left;pointerEvents=1;fontSize=22;" vertex="1" parent="1">
          <mxGeometry x="-2429.8" y="160" width="190" height="60" as="geometry" />
        </mxCell>
        <mxCell id="M4qY9_0p-FFGt08aSmp1-658" value="" style="edgeStyle=orthogonalEdgeStyle;rounded=0;orthogonalLoop=1;jettySize=auto;html=1;fontSize=22;" edge="1" parent="1" source="M4qY9_0p-FFGt08aSmp1-659" target="M4qY9_0p-FFGt08aSmp1-661">
          <mxGeometry relative="1" as="geometry" />
        </mxCell>
        <mxCell id="M4qY9_0p-FFGt08aSmp1-659" value="初始化HAL库" style="rounded=1;whiteSpace=wrap;html=1;absoluteArcSize=1;arcSize=14;strokeWidth=2;fontSize=22;" vertex="1" parent="1">
          <mxGeometry x="-2658.75" y="640" width="197.5" height="70" as="geometry" />
        </mxCell>
        <mxCell id="M4qY9_0p-FFGt08aSmp1-660" value="" style="edgeStyle=orthogonalEdgeStyle;rounded=0;orthogonalLoop=1;jettySize=auto;html=1;fontSize=22;" edge="1" parent="1" source="M4qY9_0p-FFGt08aSmp1-661" target="M4qY9_0p-FFGt08aSmp1-663">
          <mxGeometry relative="1" as="geometry" />
        </mxCell>
        <mxCell id="M4qY9_0p-FFGt08aSmp1-661" value="使能系统时钟" style="rounded=1;whiteSpace=wrap;html=1;absoluteArcSize=1;arcSize=14;strokeWidth=2;fontSize=22;" vertex="1" parent="1">
          <mxGeometry x="-2658.75" y="755" width="197.5" height="70" as="geometry" />
        </mxCell>
        <mxCell id="M4qY9_0p-FFGt08aSmp1-662" value="" style="edgeStyle=orthogonalEdgeStyle;rounded=0;orthogonalLoop=1;jettySize=auto;html=1;fontSize=22;" edge="1" parent="1" source="M4qY9_0p-FFGt08aSmp1-663" target="M4qY9_0p-FFGt08aSmp1-665">
          <mxGeometry relative="1" as="geometry" />
        </mxCell>
        <mxCell id="M4qY9_0p-FFGt08aSmp1-663" value="初始化GPIO" style="rounded=1;whiteSpace=wrap;html=1;absoluteArcSize=1;arcSize=14;strokeWidth=2;fontSize=22;" vertex="1" parent="1">
          <mxGeometry x="-2658.75" y="870" width="197.5" height="70" as="geometry" />
        </mxCell>
        <mxCell id="M4qY9_0p-FFGt08aSmp1-664" value="" style="edgeStyle=orthogonalEdgeStyle;rounded=0;orthogonalLoop=1;jettySize=auto;html=1;fontSize=22;" edge="1" parent="1" source="M4qY9_0p-FFGt08aSmp1-665" target="M4qY9_0p-FFGt08aSmp1-667">
          <mxGeometry relative="1" as="geometry" />
        </mxCell>
        <mxCell id="M4qY9_0p-FFGt08aSmp1-665" value="初始化UART" style="rounded=1;whiteSpace=wrap;html=1;absoluteArcSize=1;arcSize=14;strokeWidth=2;fontSize=22;" vertex="1" parent="1">
          <mxGeometry x="-2658.75" y="980" width="197.5" height="70" as="geometry" />
        </mxCell>
        <mxCell id="M4qY9_0p-FFGt08aSmp1-666" value="" style="edgeStyle=orthogonalEdgeStyle;rounded=0;orthogonalLoop=1;jettySize=auto;html=1;fontSize=22;" edge="1" parent="1" source="M4qY9_0p-FFGt08aSmp1-667" target="M4qY9_0p-FFGt08aSmp1-669">
          <mxGeometry relative="1" as="geometry" />
        </mxCell>
        <mxCell id="M4qY9_0p-FFGt08aSmp1-667" value="初始化RTC" style="rounded=1;whiteSpace=wrap;html=1;absoluteArcSize=1;arcSize=14;strokeWidth=2;fontSize=22;" vertex="1" parent="1">
          <mxGeometry x="-2658.75" y="1100" width="197.5" height="70" as="geometry" />
        </mxCell>
        <mxCell id="M4qY9_0p-FFGt08aSmp1-668" value="" style="edgeStyle=orthogonalEdgeStyle;rounded=0;orthogonalLoop=1;jettySize=auto;html=1;fontSize=22;" edge="1" parent="1" source="M4qY9_0p-FFGt08aSmp1-669" target="M4qY9_0p-FFGt08aSmp1-671">
          <mxGeometry relative="1" as="geometry" />
        </mxCell>
        <mxCell id="M4qY9_0p-FFGt08aSmp1-669" value="初始化屏幕" style="rounded=1;whiteSpace=wrap;html=1;absoluteArcSize=1;arcSize=14;strokeWidth=2;fontSize=22;" vertex="1" parent="1">
          <mxGeometry x="-2658.75" y="1219.51" width="197.5" height="70" as="geometry" />
        </mxCell>
        <mxCell id="M4qY9_0p-FFGt08aSmp1-670" value="" style="edgeStyle=orthogonalEdgeStyle;rounded=0;orthogonalLoop=1;jettySize=auto;html=1;fontSize=22;" edge="1" parent="1" source="M4qY9_0p-FFGt08aSmp1-671" target="M4qY9_0p-FFGt08aSmp1-673">
          <mxGeometry relative="1" as="geometry" />
        </mxCell>
        <mxCell id="M4qY9_0p-FFGt08aSmp1-671" value="初始化JY62传感器" style="rounded=1;whiteSpace=wrap;html=1;absoluteArcSize=1;arcSize=14;strokeWidth=2;fontSize=22;" vertex="1" parent="1">
          <mxGeometry x="-2658.75" y="1340" width="197.5" height="70" as="geometry" />
        </mxCell>
        <mxCell id="M4qY9_0p-FFGt08aSmp1-672" value="" style="edgeStyle=orthogonalEdgeStyle;rounded=0;orthogonalLoop=1;jettySize=auto;html=1;fontSize=22;" edge="1" parent="1" source="M4qY9_0p-FFGt08aSmp1-673" target="M4qY9_0p-FFGt08aSmp1-675">
          <mxGeometry relative="1" as="geometry" />
        </mxCell>
        <mxCell id="M4qY9_0p-FFGt08aSmp1-673" value="校准加速度和Z轴" style="rounded=1;whiteSpace=wrap;html=1;absoluteArcSize=1;arcSize=14;strokeWidth=2;fontSize=22;" vertex="1" parent="1">
          <mxGeometry x="-2658.75" y="1470" width="197.5" height="70" as="geometry" />
        </mxCell>
        <mxCell id="M4qY9_0p-FFGt08aSmp1-674" value="" style="edgeStyle=orthogonalEdgeStyle;rounded=0;orthogonalLoop=1;jettySize=auto;html=1;fontSize=22;" edge="1" parent="1" source="M4qY9_0p-FFGt08aSmp1-675" target="M4qY9_0p-FFGt08aSmp1-677">
          <mxGeometry relative="1" as="geometry" />
        </mxCell>
        <mxCell id="M4qY9_0p-FFGt08aSmp1-675" value="启用&lt;br&gt;UART2,3中断&lt;sup&gt;[1]&lt;/sup&gt;" style="rounded=1;whiteSpace=wrap;html=1;absoluteArcSize=1;arcSize=14;strokeWidth=2;fontSize=22;" vertex="1" parent="1">
          <mxGeometry x="-2658.75" y="1600" width="197.5" height="70" as="geometry" />
        </mxCell>
        <mxCell id="M4qY9_0p-FFGt08aSmp1-676" style="edgeStyle=orthogonalEdgeStyle;rounded=0;orthogonalLoop=1;jettySize=auto;html=1;fontSize=22;" edge="1" parent="1" source="M4qY9_0p-FFGt08aSmp1-677" target="M4qY9_0p-FFGt08aSmp1-679">
          <mxGeometry relative="1" as="geometry" />
        </mxCell>
        <mxCell id="M4qY9_0p-FFGt08aSmp1-677" value="启用RTC秒中断&lt;sup&gt;[2]&lt;/sup&gt;" style="rounded=1;whiteSpace=wrap;html=1;absoluteArcSize=1;arcSize=14;strokeWidth=2;fontSize=22;" vertex="1" parent="1">
          <mxGeometry x="-2658.75" y="1720" width="197.5" height="70" as="geometry" />
        </mxCell>
        <mxCell id="M4qY9_0p-FFGt08aSmp1-678" value="" style="edgeStyle=orthogonalEdgeStyle;rounded=0;orthogonalLoop=1;jettySize=auto;html=1;fontSize=22;" edge="1" parent="1" source="M4qY9_0p-FFGt08aSmp1-679" target="M4qY9_0p-FFGt08aSmp1-681">
          <mxGeometry relative="1" as="geometry" />
        </mxCell>
        <mxCell id="M4qY9_0p-FFGt08aSmp1-679" value="初始化CH375时钟" style="rounded=1;whiteSpace=wrap;html=1;absoluteArcSize=1;arcSize=14;strokeWidth=2;fontSize=22;" vertex="1" parent="1">
          <mxGeometry x="-2658.75" y="1850" width="197.5" height="70" as="geometry" />
        </mxCell>
        <mxCell id="M4qY9_0p-FFGt08aSmp1-680" style="edgeStyle=orthogonalEdgeStyle;rounded=0;orthogonalLoop=1;jettySize=auto;html=1;" edge="1" parent="1" source="M4qY9_0p-FFGt08aSmp1-681" target="M4qY9_0p-FFGt08aSmp1-692">
          <mxGeometry relative="1" as="geometry" />
        </mxCell>
        <mxCell id="M4qY9_0p-FFGt08aSmp1-681" value="复位CH375芯片" style="rounded=1;whiteSpace=wrap;html=1;absoluteArcSize=1;arcSize=14;strokeWidth=2;fontSize=22;" vertex="1" parent="1">
          <mxGeometry x="-2658.75" y="1975.68" width="197.5" height="70" as="geometry" />
        </mxCell>
        <mxCell id="M4qY9_0p-FFGt08aSmp1-682" value="" style="edgeStyle=orthogonalEdgeStyle;rounded=0;orthogonalLoop=1;jettySize=auto;html=1;fontSize=22;" edge="1" parent="1" source="M4qY9_0p-FFGt08aSmp1-683" target="M4qY9_0p-FFGt08aSmp1-685">
          <mxGeometry relative="1" as="geometry" />
        </mxCell>
        <mxCell id="M4qY9_0p-FFGt08aSmp1-683" value="开辟内存data1和data2存放临时数据" style="rounded=1;whiteSpace=wrap;html=1;absoluteArcSize=1;arcSize=14;strokeWidth=2;fontSize=22;" vertex="1" parent="1">
          <mxGeometry x="-2658.75" y="285.49" width="197.5" height="70" as="geometry" />
        </mxCell>
        <mxCell id="M4qY9_0p-FFGt08aSmp1-684" value="" style="edgeStyle=orthogonalEdgeStyle;rounded=0;orthogonalLoop=1;jettySize=auto;html=1;fontSize=22;" edge="1" parent="1" source="M4qY9_0p-FFGt08aSmp1-685" target="M4qY9_0p-FFGt08aSmp1-687">
          <mxGeometry relative="1" as="geometry" />
        </mxCell>
        <mxCell id="M4qY9_0p-FFGt08aSmp1-685" value="初始化锁死data2" style="rounded=1;whiteSpace=wrap;html=1;absoluteArcSize=1;arcSize=14;strokeWidth=2;fontSize=22;" vertex="1" parent="1">
          <mxGeometry x="-2658.75" y="405" width="197.5" height="75" as="geometry" />
        </mxCell>
        <mxCell id="M4qY9_0p-FFGt08aSmp1-686" value="" style="edgeStyle=orthogonalEdgeStyle;rounded=0;orthogonalLoop=1;jettySize=auto;html=1;fontSize=22;" edge="1" parent="1" source="M4qY9_0p-FFGt08aSmp1-687" target="M4qY9_0p-FFGt08aSmp1-659">
          <mxGeometry relative="1" as="geometry" />
        </mxCell>
        <mxCell id="M4qY9_0p-FFGt08aSmp1-687" value="初始化start标志位为0" style="rounded=1;whiteSpace=wrap;html=1;absoluteArcSize=1;arcSize=14;strokeWidth=2;fontSize=22;" vertex="1" parent="1">
          <mxGeometry x="-2658.75" y="520" width="197.5" height="70" as="geometry" />
        </mxCell>
        <mxCell id="M4qY9_0p-FFGt08aSmp1-688" value="" style="edgeStyle=orthogonalEdgeStyle;rounded=0;orthogonalLoop=1;jettySize=auto;html=1;" edge="1" parent="1" source="M4qY9_0p-FFGt08aSmp1-692" target="M4qY9_0p-FFGt08aSmp1-697">
          <mxGeometry relative="1" as="geometry" />
        </mxCell>
        <mxCell id="M4qY9_0p-FFGt08aSmp1-689" value="是" style="edgeLabel;html=1;align=center;verticalAlign=middle;resizable=0;points=[];fontSize=22;" vertex="1" connectable="0" parent="M4qY9_0p-FFGt08aSmp1-688">
          <mxGeometry x="-0.3147" y="1" relative="1" as="geometry">
            <mxPoint x="-1" y="15.14" as="offset" />
          </mxGeometry>
        </mxCell>
        <mxCell id="M4qY9_0p-FFGt08aSmp1-690" style="edgeStyle=orthogonalEdgeStyle;rounded=0;orthogonalLoop=1;jettySize=auto;html=1;fontSize=22;" edge="1" parent="1" source="M4qY9_0p-FFGt08aSmp1-692" target="M4qY9_0p-FFGt08aSmp1-702">
          <mxGeometry relative="1" as="geometry" />
        </mxCell>
        <mxCell id="M4qY9_0p-FFGt08aSmp1-691" value="否" style="edgeLabel;html=1;align=center;verticalAlign=middle;resizable=0;points=[];fontSize=22;" vertex="1" connectable="0" parent="M4qY9_0p-FFGt08aSmp1-690">
          <mxGeometry x="-0.5803" y="-2" relative="1" as="geometry">
            <mxPoint x="-27" y="-2.04" as="offset" />
          </mxGeometry>
        </mxCell>
        <mxCell id="M4qY9_0p-FFGt08aSmp1-692" value="U盘已插入？" style="strokeWidth=2;html=1;shape=mxgraph.flowchart.decision;whiteSpace=wrap;fontSize=22;" vertex="1" parent="1">
          <mxGeometry x="-2660" y="2098.94" width="200" height="110" as="geometry" />
        </mxCell>
        <mxCell id="M4qY9_0p-FFGt08aSmp1-693" style="edgeStyle=orthogonalEdgeStyle;rounded=0;orthogonalLoop=1;jettySize=auto;html=1;fontSize=22;" edge="1" parent="1" source="M4qY9_0p-FFGt08aSmp1-697" target="M4qY9_0p-FFGt08aSmp1-704">
          <mxGeometry relative="1" as="geometry" />
        </mxCell>
        <mxCell id="M4qY9_0p-FFGt08aSmp1-694" value="是" style="edgeLabel;html=1;align=center;verticalAlign=middle;resizable=0;points=[];fontSize=22;" vertex="1" connectable="0" parent="M4qY9_0p-FFGt08aSmp1-693">
          <mxGeometry x="0.0005" y="17" relative="1" as="geometry">
            <mxPoint x="-17.06" y="-3.7799999999999994" as="offset" />
          </mxGeometry>
        </mxCell>
        <mxCell id="M4qY9_0p-FFGt08aSmp1-695" value="" style="edgeStyle=orthogonalEdgeStyle;rounded=0;orthogonalLoop=1;jettySize=auto;html=1;fontSize=22;entryX=0.443;entryY=0.044;entryDx=0;entryDy=0;entryPerimeter=0;" edge="1" parent="1" source="M4qY9_0p-FFGt08aSmp1-697" target="M4qY9_0p-FFGt08aSmp1-702">
          <mxGeometry relative="1" as="geometry">
            <Array as="points">
              <mxPoint x="-2239" y="2343.68" />
            </Array>
          </mxGeometry>
        </mxCell>
        <mxCell id="M4qY9_0p-FFGt08aSmp1-696" value="否" style="edgeLabel;html=1;align=center;verticalAlign=middle;resizable=0;points=[];fontSize=22;" vertex="1" connectable="0" parent="M4qY9_0p-FFGt08aSmp1-695">
          <mxGeometry x="0.2429" y="-3" relative="1" as="geometry">
            <mxPoint x="-111.67" y="-5.33" as="offset" />
          </mxGeometry>
        </mxCell>
        <mxCell id="M4qY9_0p-FFGt08aSmp1-697" value="start标志为1？" style="strokeWidth=2;html=1;shape=mxgraph.flowchart.decision;whiteSpace=wrap;fontSize=22;" vertex="1" parent="1">
          <mxGeometry x="-2660" y="2288.94" width="200" height="110" as="geometry" />
        </mxCell>
        <mxCell id="M4qY9_0p-FFGt08aSmp1-698" style="edgeStyle=orthogonalEdgeStyle;rounded=0;orthogonalLoop=1;jettySize=auto;html=1;entryX=0.59;entryY=0.082;entryDx=0;entryDy=0;entryPerimeter=0;fontSize=22;exitX=1;exitY=0.5;exitDx=0;exitDy=0;exitPerimeter=0;" edge="1" parent="1" source="M4qY9_0p-FFGt08aSmp1-702" target="M4qY9_0p-FFGt08aSmp1-692">
          <mxGeometry relative="1" as="geometry">
            <Array as="points">
              <mxPoint x="-2040" y="2475" />
              <mxPoint x="-2040" y="2062" />
              <mxPoint x="-2542" y="2062" />
            </Array>
          </mxGeometry>
        </mxCell>
        <mxCell id="M4qY9_0p-FFGt08aSmp1-699" value="否" style="edgeLabel;html=1;align=center;verticalAlign=middle;resizable=0;points=[];fontSize=22;" vertex="1" connectable="0" parent="M4qY9_0p-FFGt08aSmp1-698">
          <mxGeometry x="-0.9343" y="3" relative="1" as="geometry">
            <mxPoint y="3.02" as="offset" />
          </mxGeometry>
        </mxCell>
        <mxCell id="M4qY9_0p-FFGt08aSmp1-700" style="edgeStyle=orthogonalEdgeStyle;rounded=0;orthogonalLoop=1;jettySize=auto;html=1;fontSize=22;" edge="1" parent="1" source="M4qY9_0p-FFGt08aSmp1-702" target="M4qY9_0p-FFGt08aSmp1-707">
          <mxGeometry relative="1" as="geometry" />
        </mxCell>
        <mxCell id="M4qY9_0p-FFGt08aSmp1-701" value="是" style="edgeLabel;html=1;align=center;verticalAlign=middle;resizable=0;points=[];fontSize=22;" vertex="1" connectable="0" parent="M4qY9_0p-FFGt08aSmp1-700">
          <mxGeometry x="-0.2927" relative="1" as="geometry">
            <mxPoint y="2.32" as="offset" />
          </mxGeometry>
        </mxCell>
        <mxCell id="M4qY9_0p-FFGt08aSmp1-702" value="用户终止程序？" style="strokeWidth=2;html=1;shape=mxgraph.flowchart.decision;whiteSpace=wrap;fontSize=22;" vertex="1" parent="1">
          <mxGeometry x="-2328" y="2420.31" width="200" height="110" as="geometry" />
        </mxCell>
        <mxCell id="M4qY9_0p-FFGt08aSmp1-703" value="" style="edgeStyle=orthogonalEdgeStyle;rounded=0;orthogonalLoop=1;jettySize=auto;html=1;fontSize=22;" edge="1" parent="1" source="M4qY9_0p-FFGt08aSmp1-704" target="M4qY9_0p-FFGt08aSmp1-706">
          <mxGeometry relative="1" as="geometry" />
        </mxCell>
        <mxCell id="M4qY9_0p-FFGt08aSmp1-704" value="清空data1和data2" style="rounded=1;whiteSpace=wrap;html=1;absoluteArcSize=1;arcSize=14;strokeWidth=2;fontSize=22;" vertex="1" parent="1">
          <mxGeometry x="-2658.75" y="2511.68" width="197.5" height="70" as="geometry" />
        </mxCell>
        <mxCell id="M4qY9_0p-FFGt08aSmp1-705" style="edgeStyle=orthogonalEdgeStyle;rounded=0;orthogonalLoop=1;jettySize=auto;html=1;entryX=0.399;entryY=0.09;entryDx=0;entryDy=0;entryPerimeter=0;fontSize=22;" edge="1" parent="1" source="M4qY9_0p-FFGt08aSmp1-706" target="M4qY9_0p-FFGt08aSmp1-697">
          <mxGeometry relative="1" as="geometry">
            <Array as="points">
              <mxPoint x="-2560" y="2791.68" />
              <mxPoint x="-2810" y="2791.68" />
              <mxPoint x="-2810" y="2231.68" />
              <mxPoint x="-2580" y="2231.68" />
            </Array>
          </mxGeometry>
        </mxCell>
        <mxCell id="M4qY9_0p-FFGt08aSmp1-706" value="写入U盘数据&lt;sup&gt;[3]&lt;/sup&gt;" style="rounded=1;whiteSpace=wrap;html=1;absoluteArcSize=1;arcSize=14;strokeWidth=2;fontSize=22;" vertex="1" parent="1">
          <mxGeometry x="-2658.75" y="2661.68" width="197.5" height="70" as="geometry" />
        </mxCell>
        <mxCell id="M4qY9_0p-FFGt08aSmp1-707" value="结束" style="strokeWidth=2;html=1;shape=mxgraph.flowchart.terminator;whiteSpace=wrap;fontSize=22;" vertex="1" parent="1">
          <mxGeometry x="-2278" y="2612.68" width="100" height="60" as="geometry" />
        </mxCell>
        <mxCell id="M4qY9_0p-FFGt08aSmp1-708" style="edgeStyle=orthogonalEdgeStyle;rounded=0;orthogonalLoop=1;jettySize=auto;html=1;fontSize=22;" edge="1" parent="1" source="M4qY9_0p-FFGt08aSmp1-712" target="M4qY9_0p-FFGt08aSmp1-396">
          <mxGeometry relative="1" as="geometry" />
        </mxCell>
        <mxCell id="M4qY9_0p-FFGt08aSmp1-709" value="是" style="edgeLabel;html=1;align=center;verticalAlign=middle;resizable=0;points=[];fontSize=22;" vertex="1" connectable="0" parent="M4qY9_0p-FFGt08aSmp1-708">
          <mxGeometry x="-0.3354" y="1" relative="1" as="geometry">
            <mxPoint as="offset" />
          </mxGeometry>
        </mxCell>
        <mxCell id="M4qY9_0p-FFGt08aSmp1-710" style="edgeStyle=orthogonalEdgeStyle;rounded=0;orthogonalLoop=1;jettySize=auto;html=1;fontSize=22;" edge="1" parent="1" source="M4qY9_0p-FFGt08aSmp1-712" target="M4qY9_0p-FFGt08aSmp1-713">
          <mxGeometry relative="1" as="geometry" />
        </mxCell>
        <mxCell id="M4qY9_0p-FFGt08aSmp1-711" value="否" style="edgeLabel;html=1;align=center;verticalAlign=middle;resizable=0;points=[];fontSize=22;" vertex="1" connectable="0" parent="M4qY9_0p-FFGt08aSmp1-710">
          <mxGeometry x="-0.3305" y="2" relative="1" as="geometry">
            <mxPoint x="11.87" y="2" as="offset" />
          </mxGeometry>
        </mxCell>
        <mxCell id="M4qY9_0p-FFGt08aSmp1-712" value="start标志为1？" style="strokeWidth=2;html=1;shape=mxgraph.flowchart.decision;whiteSpace=wrap;fontSize=22;" vertex="1" parent="1">
          <mxGeometry x="-1367.56" y="260" width="195" height="145" as="geometry" />
        </mxCell>
        <mxCell id="M4qY9_0p-FFGt08aSmp1-713" value="结束" style="strokeWidth=2;html=1;shape=mxgraph.flowchart.terminator;whiteSpace=wrap;fontSize=22;" vertex="1" parent="1">
          <mxGeometry x="-1079.8600000000001" y="302.5" width="100" height="60" as="geometry" />
        </mxCell>
        <mxCell id="M4qY9_0p-FFGt08aSmp1-714" value="" style="edgeStyle=orthogonalEdgeStyle;rounded=0;orthogonalLoop=1;jettySize=auto;html=1;fontSize=22;" edge="1" parent="1" source="M4qY9_0p-FFGt08aSmp1-715" target="M4qY9_0p-FFGt08aSmp1-716">
          <mxGeometry relative="1" as="geometry" />
        </mxCell>
        <mxCell id="M4qY9_0p-FFGt08aSmp1-715" value="提示：“CH375磁盘初始化失败”" style="rounded=1;whiteSpace=wrap;html=1;absoluteArcSize=1;arcSize=14;strokeWidth=2;fontSize=22;" vertex="1" parent="1">
          <mxGeometry x="2718.77" y="823.63" width="321.23" height="51.25" as="geometry" />
        </mxCell>
        <mxCell id="M4qY9_0p-FFGt08aSmp1-716" value="结束" style="strokeWidth=2;html=1;shape=mxgraph.flowchart.terminator;whiteSpace=wrap;fontSize=22;" vertex="1" parent="1">
          <mxGeometry x="3119.9999999999995" y="819.25" width="100" height="60" as="geometry" />
        </mxCell>
        <mxCell id="M4qY9_0p-FFGt08aSmp1-717" value="" style="edgeStyle=orthogonalEdgeStyle;rounded=0;orthogonalLoop=1;jettySize=auto;html=1;fontSize=22;" edge="1" parent="1" source="M4qY9_0p-FFGt08aSmp1-718" target="M4qY9_0p-FFGt08aSmp1-719">
          <mxGeometry relative="1" as="geometry" />
        </mxCell>
        <mxCell id="M4qY9_0p-FFGt08aSmp1-718" value="提示：“文件系统初始化失败”" style="rounded=1;whiteSpace=wrap;html=1;absoluteArcSize=1;arcSize=14;strokeWidth=2;fontSize=22;" vertex="1" parent="1">
          <mxGeometry x="2718.77" y="1173.13" width="321.23" height="51.25" as="geometry" />
        </mxCell>
        <mxCell id="M4qY9_0p-FFGt08aSmp1-719" value="结束" style="strokeWidth=2;html=1;shape=mxgraph.flowchart.terminator;whiteSpace=wrap;fontSize=22;" vertex="1" parent="1">
          <mxGeometry x="3119.9999999999995" y="1168.75" width="100" height="60" as="geometry" />
        </mxCell>
        <mxCell id="M4qY9_0p-FFGt08aSmp1-720" style="edgeStyle=orthogonalEdgeStyle;rounded=0;orthogonalLoop=1;jettySize=auto;html=1;fontSize=22;" edge="1" parent="1" source="M4qY9_0p-FFGt08aSmp1-721" target="M4qY9_0p-FFGt08aSmp1-646">
          <mxGeometry relative="1" as="geometry">
            <Array as="points">
              <mxPoint x="-3260" y="909.25" />
              <mxPoint x="-3260" y="1756.25" />
              <mxPoint x="-3851" y="1756.25" />
            </Array>
          </mxGeometry>
        </mxCell>
        <mxCell id="M4qY9_0p-FFGt08aSmp1-721" value="向下位机发送开始采集指令1" style="rounded=1;whiteSpace=wrap;html=1;absoluteArcSize=1;arcSize=14;strokeWidth=2;fontSize=22;" vertex="1" parent="1">
          <mxGeometry x="-3610" y="879.1" width="300" height="60" as="geometry" />
        </mxCell>
        <mxCell id="M4qY9_0p-FFGt08aSmp1-722" style="edgeStyle=orthogonalEdgeStyle;rounded=0;orthogonalLoop=1;jettySize=auto;html=1;fontSize=22;" edge="1" parent="1" source="M4qY9_0p-FFGt08aSmp1-723" target="M4qY9_0p-FFGt08aSmp1-646">
          <mxGeometry relative="1" as="geometry">
            <Array as="points">
              <mxPoint x="-3260" y="1094.25" />
              <mxPoint x="-3260" y="1756.25" />
              <mxPoint x="-3851" y="1756.25" />
            </Array>
          </mxGeometry>
        </mxCell>
        <mxCell id="M4qY9_0p-FFGt08aSmp1-723" value="向下位机发送终止采集指令0" style="rounded=1;whiteSpace=wrap;html=1;absoluteArcSize=1;arcSize=14;strokeWidth=2;fontSize=22;" vertex="1" parent="1">
          <mxGeometry x="-3610" y="1064.5900000000001" width="300" height="60" as="geometry" />
        </mxCell>
        <mxCell id="M4qY9_0p-FFGt08aSmp1-724" style="edgeStyle=orthogonalEdgeStyle;rounded=0;orthogonalLoop=1;jettySize=auto;html=1;fontSize=22;" edge="1" parent="1" source="M4qY9_0p-FFGt08aSmp1-725" target="M4qY9_0p-FFGt08aSmp1-646">
          <mxGeometry relative="1" as="geometry">
            <Array as="points">
              <mxPoint x="-3260" y="1280.25" />
              <mxPoint x="-3260" y="1756.25" />
              <mxPoint x="-3851" y="1756.25" />
            </Array>
          </mxGeometry>
        </mxCell>
        <mxCell id="M4qY9_0p-FFGt08aSmp1-725" value="向下位机发送修改RTC指令" style="rounded=1;whiteSpace=wrap;html=1;absoluteArcSize=1;arcSize=14;strokeWidth=2;fontSize=22;" vertex="1" parent="1">
          <mxGeometry x="-3610" y="1250.0800000000002" width="300" height="60" as="geometry" />
        </mxCell>
        <mxCell id="M4qY9_0p-FFGt08aSmp1-726" style="edgeStyle=orthogonalEdgeStyle;rounded=0;orthogonalLoop=1;jettySize=auto;html=1;entryX=0.5;entryY=0;entryDx=0;entryDy=0;entryPerimeter=0;fontSize=22;" edge="1" parent="1" source="M4qY9_0p-FFGt08aSmp1-727" target="M4qY9_0p-FFGt08aSmp1-646">
          <mxGeometry relative="1" as="geometry">
            <Array as="points">
              <mxPoint x="-3260" y="1465.25" />
              <mxPoint x="-3260" y="1756.25" />
              <mxPoint x="-3851" y="1756.25" />
            </Array>
          </mxGeometry>
        </mxCell>
        <mxCell id="M4qY9_0p-FFGt08aSmp1-727" value="向下位机发送修改文件名指令" style="rounded=1;whiteSpace=wrap;html=1;absoluteArcSize=1;arcSize=14;strokeWidth=2;fontSize=22;" vertex="1" parent="1">
          <mxGeometry x="-3610" y="1435.5800000000002" width="300" height="60" as="geometry" />
        </mxCell>
        <mxCell id="M4qY9_0p-FFGt08aSmp1-728" style="edgeStyle=orthogonalEdgeStyle;rounded=0;orthogonalLoop=1;jettySize=auto;html=1;entryX=0.5;entryY=0;entryDx=0;entryDy=0;entryPerimeter=0;fontSize=22;" edge="1" parent="1" source="M4qY9_0p-FFGt08aSmp1-729" target="M4qY9_0p-FFGt08aSmp1-646">
          <mxGeometry relative="1" as="geometry">
            <Array as="points">
              <mxPoint x="-3460" y="1756.25" />
              <mxPoint x="-3851" y="1756.25" />
            </Array>
          </mxGeometry>
        </mxCell>
        <mxCell id="M4qY9_0p-FFGt08aSmp1-729" value="显示版本信息" style="rounded=1;whiteSpace=wrap;html=1;absoluteArcSize=1;arcSize=14;strokeWidth=2;fontSize=22;" vertex="1" parent="1">
          <mxGeometry x="-3610" y="1621.0600000000002" width="300" height="60" as="geometry" />
        </mxCell>
        <mxCell id="M4qY9_0p-FFGt08aSmp1-730" value="结束" style="strokeWidth=2;html=1;shape=mxgraph.flowchart.terminator;whiteSpace=wrap;fontSize=22;" vertex="1" parent="1">
          <mxGeometry x="-3900.62" y="1956.25" width="100" height="60" as="geometry" />
        </mxCell>
      </root>
    </mxGraphModel>
  </diagram>
</mxfile>
